<svg xmlns="http://www.w3.org/2000/svg" width="18" height="22" viewBox="0 0 18 22" fill="none">
  <rect x="2.25" y="5.55066" width="13.5" height="13.1271" rx="2" stroke="#44444A"/>
  <path d="M2.25 9.05123C2.25 7.64622 2.25 6.94372 2.58731 6.43915C2.73311 6.22105 2.92039 6.03377 3.13849 5.88797C3.64306 5.55066 4.34556 5.55066 5.75057 5.55066H12.2494C13.6544 5.55066 14.3569 5.55066 14.8615 5.88797C15.0796 6.03377 15.2669 6.22105 15.4127 6.43915C15.75 6.94372 15.75 7.64622 15.75 9.05123H2.25Z" fill="#44444A"/>
  <path d="M5.25 2.92529L5.25 5.55072" stroke="#44444A" stroke-linecap="round"/>
  <path d="M12.75 2.92529L12.75 5.55072" stroke="#44444A" stroke-linecap="round"/>
  <rect x="5.25" y="10.8015" width="3" height="1.75029" rx="0.5" fill="#44444A"/>
  <rect x="5.25" y="14.3021" width="3" height="1.75029" rx="0.5" fill="#44444A"/>
  <rect x="9.75" y="10.8015" width="3" height="1.75029" rx="0.5" fill="#44444A"/>
  <rect x="9.75" y="14.3021" width="3" height="1.75029" rx="0.5" fill="#44444A"/>
</svg>