<svg xmlns="http://www.w3.org/2000/svg" width="16" height="16" viewBox="0 0 16 16" fill="none">
  <path d="M6.62505 14H1C0.9997 12.7365 1.38015 11.5051 2.08712 10.4814C2.79408 9.45768 3.79148 8.69392 4.93713 8.29898C4.38927 7.92397 3.96131 7.38549 3.70851 6.75309C3.45572 6.1207 3.3897 5.42342 3.51899 4.75132C3.64827 4.07922 3.96692 3.46316 4.43379 2.98271C4.90065 2.50225 5.49429 2.17946 6.13803 2.05603C6.78177 1.93259 7.44605 2.01418 8.04509 2.29026C8.64412 2.56633 9.15039 3.02422 9.49852 3.60478C9.84665 4.18533 10.0207 4.8619 9.99805 5.54711C9.97544 6.23231 9.75727 6.89468 9.37171 7.44867C9.14016 7.78039 8.81371 8.01183 8.48725 8.24326C8.37434 8.32155 8.26361 8.40212 8.15506 8.48498" stroke="black"/>
  <path fill-rule="evenodd" clip-rule="evenodd" d="M10.5 16C10.9596 16 11.4148 15.9095 11.8394 15.7336C12.264 15.5577 12.6499 15.2999 12.9749 14.9749C13.2999 14.6499 13.5577 14.264 13.7336 13.8394C13.9095 13.4148 14 12.9596 14 12.5C14 12.0404 13.9095 11.5852 13.7336 11.1606C13.5577 10.736 13.2999 10.3501 12.9749 10.0251C12.6499 9.70012 12.264 9.44231 11.8394 9.26642C11.4148 9.09053 10.9596 9 10.5 9C9.57174 9 8.6815 9.36875 8.02513 10.0251C7.36875 10.6815 7 11.5717 7 12.5C7 13.4283 7.36875 14.3185 8.02513 14.9749C8.6815 15.6313 9.57174 16 10.5 16ZM10.4098 13.9156L12.3542 11.5822L11.7569 11.0844L10.0847 13.0907L9.21939 12.2251L8.6695 12.7749L9.83617 13.9416L10.1372 14.2426L10.4098 13.9156Z" fill="#093603"/>
</svg>