<svg width="36" height="50" viewBox="0 0 36 50" fill="none" xmlns="http://www.w3.org/2000/svg">
<g clip-path="url(#clip0_9443_2171)">
<rect x="1" y="2" width="34" height="42" rx="4" fill="#DFDFDF"/>
<path d="M27.7641 7.95096L30.1143 39.8954C29.2703 40.5989 31.4548 40.9438 30.5 41.5H4C4 41.5 4 41 4 40.5V10.45C6.1233 8.4447 8.69255 6.90656 11.5434 6.00002L23.4899 6C25.002 6.48083 26.435 7.13933 27.7641 7.95096Z" fill="#6E747E"/>
<path fill-rule="evenodd" clip-rule="evenodd" d="M4.68408 13.7932C5.5 14.5 4 74.3292 4 14.6413V6H12C9.24792 7.58505 6.75548 9.96552 4.68408 13.7932Z" fill="#6E747E"/>
<path d="M30.8351 41.0743H4.25401V5.28564H30.8351V41.0743Z" fill="white"/>
<path d="M20.667 31.793H7.83008L7.66699 30.793H20.5039L20.667 31.793ZM20.667 28.793H7.83008L7.66699 27.793H20.5039L20.667 28.793ZM26.3721 22.8672H7.42383L7.34766 21.8545H26.2959L26.3721 22.8672ZM26.2559 20.252H7.30762L7.23047 19.2383H26.1787L26.2559 20.252ZM26.1387 17.6348H7.19043L7.11328 16.6221H26.0615L26.1387 17.6348ZM26.0244 15.0127H7.07617L7 14H25.9482L26.0244 15.0127Z" fill="#A0A2A6"/>
<path d="M7.06089 10.3553L6.99211 9.41406H25.3835L25.4553 10.3841L7.06089 10.3553Z" fill="#A0A2A5"/>
</g>
<defs>
<clipPath id="clip0_9443_2171">
<rect width="36" height="50" fill="white"/>
</clipPath>
</defs>
</svg>
