<svg width="24" height="24" viewBox="0 0 24 24" fill="none" xmlns="http://www.w3.org/2000/svg">
<g id="Filter">
<path id="Union" fill-rule="evenodd" clip-rule="evenodd" d="M5 4.02588C4.72313 4.02588 4.46878 4.17842 4.33838 4.42267C4.20799 4.66691 4.22277 4.96313 4.37682 5.19319L10.0944 13.7314V21.7759C10.0944 22.0464 10.24 22.2959 10.4756 22.4289C10.7111 22.562 11 22.5578 11.2317 22.4181L13.5439 21.0238C13.769 20.888 13.9066 20.6444 13.9066 20.3815V13.7323L19.6232 5.19311C19.7773 4.96305 19.792 4.66685 19.6616 4.42262C19.5312 4.1784 19.2769 4.02588 19 4.02588H5ZM11.4675 13.0862L6.40486 5.52588H17.5954L12.5333 13.0872C12.4507 13.2107 12.4066 13.3559 12.4066 13.5044V19.958L11.5944 20.4478V13.5035C11.5944 13.3549 11.5502 13.2097 11.4675 13.0862Z" fill="black"/>
</g>
</svg>
