<svg width="24" height="24" viewBox="0 0 24 24" fill="none" xmlns="http://www.w3.org/2000/svg">
<path d="M10.9222 1.39786C11.2234 1.14098 11.6053 1 12 1C12.3947 1 12.7766 1.14098 13.0778 1.39786L21.4111 8.51853C21.5956 8.67609 21.7439 8.87222 21.8456 9.0933C21.9473 9.31437 22 9.5551 22 9.79875V20.3214C22 20.7666 21.8244 21.1935 21.5118 21.5083C21.1993 21.8231 20.7754 22 20.3333 22H13.9444C13.7234 22 13.5115 21.9116 13.3552 21.7542C13.1989 21.5968 13.1111 21.3833 13.1111 21.1607V14.1665H10.8889V21.1607C10.8889 21.3833 10.8011 21.5968 10.6448 21.7542C10.4885 21.9116 10.2766 22 10.0556 22H3.66667C3.22464 22 2.80072 21.8231 2.48816 21.5083C2.17559 21.1935 2 20.7666 2 20.3214V9.79875C2 9.30635 2.21556 8.83746 2.58889 8.51853L10.9222 1.39786ZM12 2.67808L3.66667 9.79875V20.3214H9.22222V13.3272C9.22222 13.1046 9.31002 12.8911 9.4663 12.7337C9.62258 12.5763 9.83454 12.4879 10.0556 12.4879H13.9444C14.1655 12.4879 14.3774 12.5763 14.5337 12.7337C14.69 12.8911 14.7778 13.1046 14.7778 13.3272V20.3214H20.3333V9.79875L12 2.67808Z" fill="#71737D"/>
</svg>
