<svg width="17" height="16" viewBox="0 0 17 16" fill="none" xmlns="http://www.w3.org/2000/svg">
<g id="eos-icons:loading">
<path id="Vector" opacity="0.3" d="M8.61796 1.33337C7.29942 1.33337 6.01049 1.72437 4.91416 2.45691C3.81783 3.18945 2.96335 4.23064 2.45877 5.44882C1.95418 6.66699 1.82216 8.00744 2.0794 9.30064C2.33663 10.5938 2.97157 11.7817 3.90392 12.7141C4.83627 13.6464 6.02416 14.2814 7.31736 14.5386C8.61057 14.7958 9.95101 14.6638 11.1692 14.1592C12.3874 13.6547 13.4286 12.8002 14.1611 11.7038C14.8936 10.6075 15.2846 9.31858 15.2846 8.00004C15.2846 7.12456 15.1122 6.25765 14.7772 5.44882C14.4421 4.63998 13.9511 3.90505 13.332 3.286C12.713 2.66694 11.978 2.17588 11.1692 1.84084C10.3603 1.50581 9.49344 1.33337 8.61796 1.33337ZM8.61796 13.3334C7.56313 13.3334 6.53198 13.0206 5.65492 12.4345C4.77786 11.8485 4.09427 11.0156 3.69061 10.041C3.28694 9.06648 3.18132 7.99412 3.38711 6.95956C3.5929 5.92499 4.10085 4.97468 4.84673 4.2288C5.59261 3.48292 6.54292 2.97497 7.57748 2.76919C8.61205 2.5634 9.6844 2.66902 10.6589 3.07268C11.6335 3.47635 12.4664 4.15994 13.0525 5.037C13.6385 5.91406 13.9513 6.94521 13.9513 8.00004C13.9513 9.41453 13.3894 10.7711 12.3892 11.7713C11.389 12.7715 10.0325 13.3334 8.61796 13.3334Z" fill="#0A213A"/>
<path id="Vector_2" d="M13.9513 8.00004L15.2846 8.00004C15.2846 7.12456 15.1122 6.25766 14.7771 5.44882C14.4421 4.63998 13.9511 3.90505 13.332 3.286C12.7129 2.66694 11.978 2.17588 11.1692 1.84084C10.3603 1.50581 9.49343 1.33337 8.61795 1.33337V2.66671C10.0324 2.66671 11.389 3.22861 12.3892 4.2288C13.3894 5.229 13.9513 6.58555 13.9513 8.00004Z" fill="#014289"/>
</g>
</svg>
