<svg width="332" height="221" viewBox="0 0 332 221" fill="none" xmlns="http://www.w3.org/2000/svg">
<g clip-path="url(#clip0_9010_2287)">
<mask id="mask0_9010_2287" style="mask-type:luminance" maskUnits="userSpaceOnUse" x="0" y="0" width="332" height="221">
<path d="M0 0H332V221H0V0Z" fill="white"/>
</mask>
<g mask="url(#mask0_9010_2287)">
<path d="M230.639 73.5031C227.981 51.4963 177.482 14.6744 127.766 40.3288C104.644 52.2614 108.95 64.5626 93.2876 84.5259C83.9521 96.4241 69.3444 106.749 67.4627 121.989C65.8352 135.144 70.5485 148.148 78.7246 155.709C97.1126 172.71 129.617 180.852 153.858 144.71C178.098 108.568 237.49 130.262 230.639 73.5031Z" fill="url(#paint0_linear_9010_2287)"/>
<path d="M158.406 171.059C187.599 147.947 217.821 123.15 250.122 115.934C283.442 108.483 285.966 119.691 283.528 135.66C281.091 151.628 261.708 185.559 216.434 195.039C171.149 204.523 131.088 192.692 158.406 171.059Z" fill="url(#paint1_linear_9010_2287)"/>
<path fill-rule="evenodd" clip-rule="evenodd" d="M220.533 107.684C220.533 137.624 196.226 161.893 166.242 161.893C136.257 161.893 111.95 137.624 111.95 107.684C111.95 77.7445 136.257 53.475 166.242 53.475C196.226 53.475 220.533 77.7445 220.533 107.684Z" fill="#B34943" stroke="#B34943" stroke-width="25" stroke-linecap="round" stroke-linejoin="round"/>
<path d="M228.283 169.632L204.653 146.038" stroke="#B34943" stroke-width="11" stroke-linecap="round" stroke-linejoin="round"/>
<path d="M126.633 108.22H144.803L154.203 94.2189L166.734 122.221L176.134 108.22H204.171" stroke="white" stroke-width="6" stroke-linecap="round" stroke-linejoin="round"/>
<path d="M130.429 178.318C133.31 178.318 135.646 180.653 135.646 183.534C135.646 186.415 133.31 188.751 130.429 188.751C127.547 188.751 125.211 186.415 125.211 183.534C125.211 180.653 127.547 178.318 130.429 178.318Z" fill="#B34943"/>
<path d="M232.436 46.1822C229.568 47.8355 225.901 46.8543 224.245 43.9908C222.589 41.1272 223.572 37.4655 226.44 35.8123C229.308 34.159 232.975 35.1401 234.631 38.0037C236.286 40.8673 235.304 44.5289 232.436 46.1822Z" fill="#B34943"/>
<path d="M64.0286 93.9013C66.386 93.9013 68.2972 95.8122 68.2972 98.1695C68.2972 100.527 66.386 102.438 64.0286 102.438C61.6711 102.438 59.76 100.527 59.76 98.1695C59.76 95.8122 61.6711 93.9013 64.0286 93.9013Z" fill="#B34943"/>
<path d="M252.262 99.7418C251.067 100.431 249.538 100.022 248.848 98.8283C248.158 97.6346 248.567 96.1081 249.763 95.4189C250.958 94.7297 252.487 95.1387 253.177 96.3325C253.868 97.5262 253.458 99.0526 252.262 99.7418Z" fill="#B34943"/>
<path d="M92.2156 67.1059C90.7406 67.1059 89.5448 68.2998 89.5448 69.7726C89.5448 71.2454 90.7406 72.4393 92.2156 72.4393C93.6906 72.4393 94.8864 71.2454 94.8864 69.7726C94.8864 68.2998 93.6906 67.1059 92.2156 67.1059Z" fill="#E1E4E5"/>
<path d="M270.817 135.399C272.733 134.295 273.39 131.848 272.284 129.934C271.177 128.021 268.727 127.366 266.811 128.47C264.894 129.575 264.238 132.022 265.344 133.935C266.45 135.848 268.901 136.504 270.817 135.399Z" fill="#E1E4E5"/>
<path d="M74.1868 161.78C77.014 161.78 79.3059 164.069 79.3059 166.891C79.3059 169.714 77.014 172.003 74.1868 172.003C71.3596 172.003 69.0677 169.714 69.0677 166.891C69.0677 164.069 71.3596 161.78 74.1868 161.78Z" fill="#E1E4E5"/>
<path d="M157.232 24.7004C155.172 25.8879 152.538 25.1832 151.349 23.1264C150.159 21.0696 150.865 18.4396 152.925 17.2521C154.985 16.0646 157.619 16.7693 158.808 18.8261C159.997 20.8829 159.292 23.5129 157.232 24.7004Z" fill="#E1E4E5"/>
</g>
</g>
<defs>
<linearGradient id="paint0_linear_9010_2287" x1="156.586" y1="-48.1938" x2="140.213" y2="325.511" gradientUnits="userSpaceOnUse">
<stop stop-color="white"/>
<stop offset="1" stop-color="#EEEEEE"/>
</linearGradient>
<linearGradient id="paint1_linear_9010_2287" x1="154.178" y1="273.216" x2="312.906" y2="-22.8412" gradientUnits="userSpaceOnUse">
<stop stop-color="white"/>
<stop offset="1" stop-color="#EEEEEE"/>
</linearGradient>
<clipPath id="clip0_9010_2287">
<rect width="332" height="221" fill="white"/>
</clipPath>
</defs>
</svg>
