<svg width="42" height="47" viewBox="0 0 42 47" fill="none" xmlns="http://www.w3.org/2000/svg">
<rect x="0.5" y="1" width="41" height="45" rx="1.5" fill="#EBF8ED"/>
<rect x="0.5" y="1" width="41" height="45" rx="1.5" stroke="#BBD2B2"/>
<path d="M19.4191 16.0387L10.4634 32.9357H28.3748L26.2124 28.8547C26.8112 29.1937 27.4583 29.4205 28.1264 29.5255L30.1288 33.3031C30.1881 33.4148 30.2193 33.5416 30.2193 33.6706C30.2193 33.7996 30.188 33.9263 30.1287 34.038C30.0693 34.1497 29.984 34.2425 29.8813 34.3069C29.7786 34.3713 29.6621 34.4052 29.5435 34.4051H9.29402C9.17551 34.405 9.05909 34.3711 8.95646 34.3066C8.85382 34.2421 8.7686 34.1494 8.70934 34.0377C8.65009 33.926 8.6189 33.7994 8.6189 33.6704C8.6189 33.5414 8.65009 33.4147 8.70935 33.3031L18.8344 14.2005C18.8937 14.0889 18.9789 13.9961 19.0815 13.9317C19.1842 13.8672 19.3006 13.8333 19.4191 13.8333C19.5376 13.8333 19.654 13.8672 19.7566 13.9317C19.8593 13.9961 19.9445 14.0889 20.0038 14.2005L23.393 20.5943C23.1421 21.2773 22.999 22.0016 22.9697 22.7365L19.4191 16.0387Z" fill="#292C3D"/>
<path fill-rule="evenodd" clip-rule="evenodd" d="M27.0782 27.8977C27.7138 28.1665 28.397 28.3044 29.087 28.3031C30.2778 28.3053 31.4322 27.8933 32.3526 27.1377L35.2694 30.0537L36.3909 28.9322L33.4131 25.9544C33.9889 25.0665 34.2776 24.023 34.2399 22.9654C34.2022 21.9078 33.8399 20.8874 33.2024 20.0427C32.5648 19.1981 31.6828 18.57 30.6761 18.2439C29.6693 17.9177 28.5866 17.9093 27.5749 18.2196C26.5631 18.53 25.6714 19.1442 25.0207 19.9787C24.37 20.8133 23.9919 21.8279 23.9377 22.8848C23.8835 23.9417 24.1557 24.9896 24.7176 25.8864C25.2794 26.7832 26.1036 27.4854 27.0782 27.8977ZM25.5172 23.1469C25.5172 24.0937 25.8933 25.0017 26.5628 25.6712C27.2322 26.3406 28.1402 26.7167 29.087 26.7167C30.0338 26.7167 30.9417 26.3406 31.6112 25.6712C32.2807 25.0017 32.6568 24.0937 32.6568 23.1469C32.6568 22.2002 32.2807 21.2922 31.6112 20.6227C30.9417 19.9533 30.0338 19.5772 29.087 19.5772C28.1402 19.5772 27.2322 19.9533 26.5628 20.6227C25.8933 21.2922 25.5172 22.2002 25.5172 23.1469Z" fill="#292C3D"/>
<path d="M18.6382 29.6761C18.6382 29.1626 19.0544 28.7464 19.5678 28.7464C20.0812 28.7464 20.4974 29.1626 20.4974 29.6761C20.4974 30.1895 20.0812 30.6057 19.5678 30.6057C19.0544 30.6057 18.6382 30.1895 18.6382 29.6761ZM19.5678 21.3057C19.0547 21.3057 18.6382 21.7221 18.6382 22.2353V26.3257C18.6382 26.5722 18.7361 26.8087 18.9105 26.983C19.0848 27.1574 19.3213 27.2553 19.5678 27.2553C19.8144 27.2553 20.0508 27.1574 20.2252 26.983C20.3995 26.8087 20.4974 26.5722 20.4974 26.3257V22.2353C20.4974 21.7221 20.081 21.3057 19.5678 21.3057Z" fill="#292C3D"/>
</svg>
