<svg width="17" height="17" viewBox="0 0 17 17" fill="none" xmlns="http://www.w3.org/2000/svg">
<path d="M13.4735 11.6416C12.9568 12.4823 12.2409 13.1825 11.389 13.6804C10.5371 14.1782 9.57555 14.4583 8.58956 14.4958C7.60357 14.5333 6.62355 14.327 5.73632 13.8953C4.84908 13.4635 4.08202 12.8197 3.50306 12.0207C2.92411 11.2217 2.55113 10.2922 2.41718 9.31465C2.28323 8.33708 2.39244 7.34157 2.73512 6.41628C3.07781 5.491 3.6434 4.66451 4.3818 4.01003C5.12019 3.35554 6.0086 2.89326 6.96833 2.66413C9.59972 2.03593 11.6136 3.40914 13.6558 4.83732" stroke="#014289" stroke-width="1.5" stroke-linecap="round" stroke-linejoin="round"/>
<path d="M13.0365 2.24357L13.6557 4.83734L11.062 5.45657" stroke="#014289" stroke-width="1.5" stroke-linecap="square" stroke-linejoin="round"/>
</svg>
