<svg width="48" height="48" viewBox="0 0 48 48" fill="none" xmlns="http://www.w3.org/2000/svg">
<g clip-path="url(#clip0_3897_2851)">
<circle cx="24" cy="24" r="19.2" fill="#AFCDE4"/>
<path d="M33.9926 7.60206L36.2843 38.7551C35.4613 39.4412 34.58 40.0597 33.6489 40.6021L14.3483 40.6021C13.8878 40.3338 13.4395 40.047 13.0043 39.7425L10.8195 10.0392C12.89 8.08356 15.3953 6.58353 18.1753 5.69946L29.8246 5.69943C31.2992 6.16835 32.6965 6.81054 33.9926 7.60206Z" fill="#40557B"/>
<path fill-rule="evenodd" clip-rule="evenodd" d="M37.2001 40.602L33.6487 40.6023C33.8558 40.4816 34.0251 40.3851 34.2273 40.257C35.4234 40.285 36.8071 40.257 36.8071 40.257L37.2001 40.602Z" fill="#CAD8F0"/>
<path fill-rule="evenodd" clip-rule="evenodd" d="M13.4776 40.0633C13.7628 40.2505 14.0534 40.4303 14.3489 40.6024L13.1452 40.602L13.0842 39.7981C13.2142 39.8881 13.3453 39.9765 13.4776 40.0633Z" fill="#CAD8F0"/>
<path fill-rule="evenodd" clip-rule="evenodd" d="M11.213 9.67769C11.0874 9.78991 10.9633 9.90375 10.8407 10.0192L10.5 5.50202L18.8379 5.50192C15.9696 6.3007 13.3719 7.74874 11.213 9.67769Z" fill="#CAD8F0"/>
<path d="M36.807 40.257H13.455L10.887 5.35501H34.239L36.807 40.257Z" fill="white"/>
<path fill-rule="evenodd" clip-rule="evenodd" d="M19.854 15.621L19.779 14.595H13.875L13.953 15.621H19.854ZM19.893 16.134L19.968 17.16H14.064L13.989 16.134H19.893ZM32.901 22.038L32.826 21.009H14.349L14.424 22.038H32.901ZM32.937 22.551L33.012 23.577H14.535L14.46 22.551H32.937ZM33.126 25.116L33.051 24.09H14.574L14.649 25.116H33.126ZM33.165 25.629L33.24 26.655H14.763L14.688 25.629H33.165ZM23 30L22.8996 29H15L15.1004 30H23ZM22.8996 31L23 32H15.1004L15 31H22.8996ZM33.918 35.895L33.843 34.869H15.366L15.441 35.895H33.918ZM34.032 37.434L33.957 36.408H15.48L15.555 37.434H34.032Z" fill="#BEC5D3"/>
<path d="M32 19H14.2258L14 18H31.7652L32 19Z" fill="#BEC5D3"/>
<path d="M13.6241 9.32389L13.557 8.40601H31.491L31.561 9.35202L13.6241 9.32389Z" fill="#BEC5D3"/>
</g>
<defs>
<clipPath id="clip0_3897_2851">
<rect width="48" height="48" fill="white"/>
</clipPath>
</defs>
</svg>
