<svg width="30" height="22" viewBox="0 0 30 22" fill="none" xmlns="http://www.w3.org/2000/svg">
<path d="M11.55 2.35852L1.97252 20.4287H21.1275L18.8149 16.0643C19.4553 16.4269 20.1473 16.6694 20.8618 16.7817L23.0033 20.8215C23.0667 20.941 23.1 21.0766 23.1 21.2145C23.1 21.3525 23.0665 21.488 23.0031 21.6075C22.9396 21.727 22.8484 21.8261 22.7385 21.895C22.6287 21.9639 22.5041 22.0001 22.3773 22H0.721993C0.595255 22 0.470751 21.9637 0.360994 21.8947C0.251237 21.8258 0.160094 21.7266 0.0967267 21.6072C0.0333591 21.4877 -8.04921e-07 21.3522 0 21.2143C8.0495e-07 21.0764 0.0333622 20.9409 0.0967312 20.8215L10.9247 0.392795C10.9881 0.273369 11.0793 0.174198 11.189 0.105248C11.2988 0.0362987 11.4233 0 11.55 0C11.6767 0 11.8012 0.0362987 11.911 0.105248C12.0207 0.174198 12.1119 0.273369 12.1753 0.392795L15.7998 7.23039C15.5315 7.9609 15.3785 8.73544 15.3471 9.52137L11.55 2.35852Z" fill="#71737D"/>
<path fill-rule="evenodd" clip-rule="evenodd" d="M19.7408 15.0402C20.4205 15.3277 21.1511 15.4751 21.889 15.4737C23.1625 15.476 24.3971 15.0354 25.3814 14.2274L28.5007 17.3459L29.7 16.1465L26.5155 12.962C27.1313 12.0124 27.44 10.8964 27.3996 9.7654C27.3593 8.63439 26.972 7.54317 26.2902 6.63987C25.6084 5.73657 24.6651 5.06494 23.5885 4.71615C22.5118 4.36736 21.3539 4.35831 20.2719 4.69022C19.19 5.02212 18.2363 5.67892 17.5405 6.57144C16.8446 7.46397 16.4402 8.549 16.3822 9.67924C16.3242 10.8095 16.6154 11.9302 17.2163 12.8893C17.8171 13.8483 18.6985 14.5993 19.7408 15.0402ZM18.0714 9.9596C18.0714 10.9721 18.4736 11.9431 19.1896 12.6591C19.9055 13.375 20.8765 13.7772 21.889 13.7772C22.9015 13.7772 23.8726 13.375 24.5885 12.6591C25.3044 11.9431 25.7067 10.9721 25.7067 9.9596C25.7067 8.94711 25.3044 7.97608 24.5885 7.26014C23.8726 6.5442 22.9015 6.14198 21.889 6.14198C20.8765 6.14198 19.9055 6.5442 19.1896 7.26014C18.4736 7.97608 18.0714 8.94711 18.0714 9.9596Z" fill="#71737D"/>
<path d="M10.7148 16.9436C10.7148 16.3945 11.1599 15.9494 11.709 15.9494C12.2581 15.9494 12.7032 16.3945 12.7032 16.9436C12.7032 17.4927 12.2581 17.9378 11.709 17.9378C11.1599 17.9378 10.7148 17.4927 10.7148 16.9436ZM11.709 7.99207C11.1602 7.99207 10.7148 8.43745 10.7148 8.98624V13.3606C10.7148 13.6243 10.8196 13.8771 11.006 14.0636C11.1925 14.25 11.4453 14.3548 11.709 14.3548C11.9727 14.3548 12.2256 14.25 12.412 14.0636C12.5984 13.8771 12.7032 13.6243 12.7032 13.3606V8.98624C12.7032 8.43745 12.2578 7.99207 11.709 7.99207Z" fill="#71737D"/>
</svg>
