<svg xmlns="http://www.w3.org/2000/svg" width="11" height="15" viewBox="0 0 11 15" fill="none">
  <path d="M10.3125 7.49996C10.3136 7.6794 10.2707 7.85483 10.1899 8.00184C10.109 8.14885 9.9942 8.26015 9.86135 8.32027L7.13541 9.58191L6.14455 13.0507C6.09571 13.2182 6.00778 13.3626 5.89256 13.4646C5.77734 13.5666 5.64036 13.6213 5.50002 13.6213C5.35967 13.6213 5.22269 13.5666 5.10748 13.4646C4.99226 13.3626 4.90432 13.2182 4.85549 13.0507L3.86463 9.58136L1.13869 8.32027C1.00712 8.25811 0.893644 8.1462 0.813512 7.99956C0.733381 7.85292 0.69043 7.67858 0.69043 7.49996C0.69043 7.32134 0.733381 7.147 0.813512 7.00036C0.893644 6.85372 1.00712 6.7418 1.13869 6.67964L3.86463 5.41855L4.85549 1.94918C4.90432 1.78172 4.99226 1.6373 5.10748 1.53531C5.22269 1.43333 5.35967 1.37866 5.50002 1.37866C5.64036 1.37866 5.77734 1.43333 5.89256 1.53531C6.00778 1.6373 6.09571 1.78172 6.14455 1.94918L7.13584 5.41855L9.86135 6.67964C9.9942 6.73976 10.109 6.85106 10.1899 6.99807C10.2707 7.14509 10.3136 7.32051 10.3125 7.49996Z" fill="#AD46A6"/>
</svg>