<svg width="200" height="166" viewBox="0 0 200 166" fill="none" xmlns="http://www.w3.org/2000/svg">
<g clip-path="url(#clip0_3906_2663)">
<path opacity="0.1" d="M188.037 96.5864C181.006 106.234 183.326 120.006 187.391 130.977C188.752 134.65 190.298 138.535 189.592 142.531C188.73 147.416 184.679 151.076 180.467 153.069C172.789 156.703 163.72 156.123 156.852 151.545C150.925 147.594 146.753 141.027 140.712 137.265C130.6 130.97 117.474 133.783 106.22 138.589C98.2588 141.988 89.5376 146.367 81.7791 143.228C76.3194 141.019 72.643 135.395 70.7088 129.384C69.7749 126.482 69.1211 123.332 67.2605 121.06C66.1542 119.709 64.6923 118.768 63.1891 117.982C49.4697 110.798 31.8226 115.288 18.5217 107.272C9.54194 101.859 3.95291 91.3548 1.63073 80.3114C-0.691449 69.2681 -0.116742 57.6105 0.808178 46.1523C1.4655 38.0094 2.50536 29.3079 7.40115 22.9089C12.5789 16.1436 21.257 13.455 29.0173 14.5146C36.7777 15.5742 43.7352 19.8845 49.8217 25.03C57.4348 31.4487 64.4391 39.5072 73.9074 41.9443C80.3567 43.6038 87.2083 42.4292 93.9126 41.9102C105.119 41.0446 116.287 42.0413 127.386 43.1674C138.011 44.245 148.709 45.4482 158.772 48.9809C165.893 51.4809 171.538 56.2061 178.242 59.4352C182.612 61.5401 187.419 62.0286 191.532 64.7476C196.607 68.0971 201.194 74.031 199.705 81.152C198.299 87.9209 191.773 91.4662 188.037 96.5864Z" fill="#B34943"/>
<g opacity="0.5">
<path opacity="0.5" d="M153.553 140.591C153.553 140.591 154.146 123.034 163.645 113.113C167.632 108.95 170.25 103.663 170.944 97.9406C171.268 95.2251 171.342 92.4855 171.166 89.7564" stroke="#535461" stroke-width="2" stroke-miterlimit="10"/>
<path opacity="0.5" d="M177.116 83.4723C176.466 85.4335 171.032 89.9378 171.032 89.9378C171.032 89.9378 169.367 83.0754 170.017 81.116C170.171 80.6499 170.416 80.2187 170.738 79.8472C171.059 79.4757 171.45 79.1711 171.889 78.9508C172.328 78.7305 172.806 78.5988 173.296 78.5633C173.786 78.5277 174.278 78.589 174.744 78.7436C175.21 78.8982 175.641 79.1431 176.013 79.4643C176.384 79.7855 176.689 80.1767 176.909 80.6157C177.129 81.0546 177.261 81.5327 177.297 82.0225C177.332 82.5123 177.271 83.0044 177.116 83.4705V83.4723Z" fill="#B34943"/>
<path opacity="0.5" d="M179.381 96.2775C177.765 97.5706 170.76 98.4003 170.76 98.4003C170.76 98.4003 173.095 91.7355 174.711 90.4442C175.092 90.1133 175.535 89.8627 176.014 89.7074C176.494 89.5521 177 89.4954 177.502 89.5405C178.003 89.5857 178.491 89.7319 178.935 89.9703C179.379 90.2087 179.77 90.5345 180.085 90.9279C180.4 91.3214 180.633 91.7745 180.768 92.2599C180.903 92.7454 180.939 93.2532 180.873 93.7529C180.808 94.2526 180.642 94.7338 180.385 95.1677C180.129 95.6015 179.787 95.979 179.381 96.2775Z" fill="#B34943"/>
<path opacity="0.5" d="M172.973 114.747C170.929 115.049 164.458 112.233 164.458 112.233C164.458 112.233 169.835 107.657 171.879 107.355C172.365 107.283 172.86 107.308 173.336 107.427C173.813 107.547 174.261 107.759 174.655 108.052C175.049 108.345 175.382 108.712 175.635 109.134C175.887 109.555 176.054 110.022 176.125 110.508C176.197 110.994 176.173 111.489 176.053 111.965C175.934 112.442 175.721 112.89 175.429 113.284C175.136 113.678 174.768 114.011 174.347 114.263C173.925 114.516 173.459 114.683 172.973 114.754V114.747Z" fill="#B34943"/>
<path opacity="0.5" d="M164.975 127.631C163.012 128.274 156.157 126.586 156.157 126.586C156.157 126.586 160.685 121.168 162.648 120.525C163.59 120.215 164.617 120.293 165.502 120.74C166.388 121.188 167.059 121.968 167.369 122.911C167.678 123.853 167.601 124.88 167.153 125.765C166.706 126.651 165.925 127.322 164.983 127.631H164.975Z" fill="#B34943"/>
<path opacity="0.5" d="M163.18 96.3081C164.133 98.1399 170.222 101.726 170.222 101.726C170.222 101.726 170.775 94.6881 169.821 92.8544C169.594 92.4188 169.284 92.0321 168.908 91.7164C168.532 91.4007 168.097 91.1621 167.629 91.0144C167.161 90.8666 166.668 90.8125 166.179 90.8552C165.69 90.8979 165.214 91.0366 164.778 91.2632C164.342 91.4899 163.956 91.8001 163.64 92.1762C163.324 92.5523 163.086 92.9869 162.938 93.4552C162.79 93.9235 162.736 94.4163 162.779 94.9055C162.822 95.3947 162.96 95.8706 163.187 96.3063L163.18 96.3081Z" fill="#B34943"/>
<path opacity="0.5" d="M154.018 111.493C155.476 112.957 162.351 114.559 162.351 114.559C162.351 114.559 160.773 107.676 159.316 106.213C158.616 105.51 157.666 105.114 156.674 105.113C155.682 105.111 154.73 105.503 154.028 106.203C153.325 106.903 152.93 107.853 152.928 108.845C152.926 109.837 153.318 110.789 154.018 111.491V111.493Z" fill="#B34943"/>
<path opacity="0.5" d="M147.14 127.475C148.329 129.163 154.835 131.906 154.835 131.906C154.835 131.906 154.444 124.857 153.253 123.167C152.978 122.748 152.621 122.388 152.204 122.11C151.786 121.832 151.318 121.64 150.825 121.547C150.332 121.454 149.826 121.461 149.336 121.567C148.846 121.673 148.382 121.877 147.973 122.166C147.563 122.455 147.216 122.824 146.951 123.25C146.687 123.676 146.511 124.151 146.434 124.647C146.357 125.142 146.38 125.648 146.503 126.134C146.625 126.62 146.844 127.077 147.147 127.477L147.14 127.475Z" fill="#B34943"/>
<path opacity="0.5" d="M155.64 133.325C155.64 133.325 150.252 125.487 151.197 118.113C151.613 115.022 151.016 111.88 149.494 109.158C148.762 107.872 147.913 106.655 146.958 105.523" stroke="#535461" stroke-width="2" stroke-miterlimit="10"/>
<path opacity="0.5" d="M147.527 100.872C147.874 101.935 146.958 105.645 146.958 105.645C146.958 105.645 144.025 103.192 143.679 102.131C143.512 101.62 143.555 101.064 143.798 100.586C144.041 100.107 144.464 99.7443 144.974 99.5776C145.485 99.4109 146.041 99.4538 146.519 99.6968C146.998 99.9398 147.361 100.363 147.527 100.873V100.872Z" fill="#B34943"/>
<path opacity="0.5" d="M152.633 105.719C152.348 106.796 149.561 109.417 149.561 109.417C149.561 109.417 148.433 105.764 148.718 104.683C148.856 104.163 149.194 103.72 149.658 103.45C150.122 103.18 150.675 103.106 151.194 103.243C151.713 103.381 152.156 103.719 152.426 104.183C152.696 104.647 152.771 105.2 152.633 105.719Z" fill="#B34943"/>
<path opacity="0.5" d="M155.784 115.823C154.992 116.611 151.265 117.464 151.265 117.464C151.265 117.464 152.134 113.741 152.928 112.953C153.117 112.766 153.341 112.617 153.587 112.516C153.833 112.415 154.096 112.363 154.362 112.364C154.628 112.365 154.892 112.418 155.137 112.521C155.382 112.623 155.605 112.773 155.793 112.962C155.98 113.151 156.129 113.374 156.23 113.621C156.331 113.867 156.382 114.13 156.382 114.396C156.381 114.662 156.327 114.925 156.225 115.171C156.122 115.416 155.972 115.639 155.784 115.827V115.823Z" fill="#B34943"/>
<path opacity="0.5" d="M156.446 124.007C155.798 124.918 152.262 126.385 152.262 126.385C152.262 126.385 152.49 122.569 153.138 121.658C153.292 121.441 153.487 121.257 153.713 121.116C153.938 120.974 154.189 120.879 154.451 120.834C154.713 120.79 154.981 120.798 155.241 120.857C155.5 120.917 155.745 121.026 155.961 121.18C156.178 121.334 156.362 121.53 156.504 121.755C156.645 121.98 156.741 122.231 156.785 122.493C156.829 122.755 156.822 123.024 156.762 123.283C156.703 123.542 156.593 123.787 156.439 124.004L156.446 124.007Z" fill="#B34943"/>
<path opacity="0.5" d="M145.588 110.94C146.592 111.432 150.394 111.037 150.394 111.037C150.394 111.037 148.37 107.793 147.366 107.303C146.884 107.067 146.328 107.033 145.82 107.207C145.312 107.381 144.895 107.75 144.659 108.232C144.423 108.715 144.388 109.271 144.563 109.779C144.737 110.286 145.106 110.704 145.588 110.94Z" fill="#B34943"/>
<path opacity="0.5" d="M146.484 120.503C147.591 120.672 151.1 119.158 151.1 119.158C151.1 119.158 148.198 116.669 147.093 116.507C146.562 116.426 146.021 116.56 145.589 116.878C145.156 117.196 144.868 117.674 144.787 118.204C144.706 118.735 144.84 119.276 145.158 119.709C145.476 120.141 145.954 120.43 146.484 120.51V120.503Z" fill="#B34943"/>
<path opacity="0.5" d="M148.629 129.675C149.69 130.034 153.406 129.136 153.406 129.136C153.406 129.136 150.967 126.193 149.906 125.839C149.396 125.67 148.84 125.71 148.36 125.95C147.88 126.191 147.515 126.613 147.345 127.122C147.176 127.632 147.216 128.188 147.457 128.668C147.698 129.148 148.119 129.513 148.629 129.682V129.675Z" fill="#B34943"/>
<path opacity="0.5" d="M147.527 100.872C147.874 101.935 146.958 105.645 146.958 105.645C146.958 105.645 144.025 103.192 143.679 102.131C143.512 101.62 143.555 101.064 143.798 100.586C144.041 100.107 144.464 99.7443 144.974 99.5776C145.485 99.4109 146.041 99.4538 146.519 99.6968C146.998 99.9398 147.361 100.363 147.527 100.873V100.872Z" fill="white"/>
<path opacity="0.5" d="M152.633 105.719C152.348 106.796 149.561 109.417 149.561 109.417C149.561 109.417 148.433 105.764 148.718 104.683C148.856 104.163 149.194 103.72 149.658 103.45C150.122 103.18 150.675 103.106 151.194 103.243C151.713 103.381 152.156 103.719 152.426 104.183C152.696 104.647 152.771 105.2 152.633 105.719Z" fill="white"/>
<path opacity="0.5" d="M155.784 115.823C154.992 116.611 151.265 117.464 151.265 117.464C151.265 117.464 152.134 113.741 152.928 112.953C153.117 112.766 153.341 112.617 153.587 112.516C153.833 112.415 154.096 112.363 154.362 112.364C154.628 112.365 154.892 112.418 155.137 112.521C155.382 112.623 155.605 112.773 155.793 112.962C155.98 113.151 156.129 113.374 156.23 113.621C156.331 113.867 156.382 114.13 156.382 114.396C156.381 114.662 156.327 114.925 156.225 115.171C156.122 115.416 155.972 115.639 155.784 115.827V115.823Z" fill="white"/>
<path opacity="0.5" d="M156.446 124.007C155.798 124.918 152.262 126.385 152.262 126.385C152.262 126.385 152.49 122.569 153.138 121.658C153.292 121.441 153.487 121.257 153.713 121.116C153.938 120.974 154.189 120.879 154.451 120.834C154.713 120.79 154.981 120.798 155.241 120.857C155.5 120.917 155.745 121.026 155.961 121.18C156.178 121.334 156.362 121.53 156.504 121.755C156.645 121.98 156.741 122.231 156.785 122.493C156.829 122.755 156.822 123.024 156.762 123.283C156.703 123.542 156.593 123.787 156.439 124.004L156.446 124.007Z" fill="white"/>
<path opacity="0.5" d="M145.588 110.94C146.592 111.432 150.394 111.037 150.394 111.037C150.394 111.037 148.37 107.793 147.366 107.303C146.884 107.067 146.328 107.033 145.82 107.207C145.312 107.381 144.895 107.75 144.659 108.232C144.423 108.715 144.388 109.271 144.563 109.779C144.737 110.286 145.106 110.704 145.588 110.94Z" fill="white"/>
<path opacity="0.5" d="M146.484 120.503C147.591 120.672 151.1 119.158 151.1 119.158C151.1 119.158 148.198 116.669 147.093 116.507C146.562 116.426 146.021 116.56 145.589 116.878C145.156 117.196 144.868 117.674 144.787 118.204C144.706 118.735 144.84 119.276 145.158 119.709C145.476 120.141 145.954 120.43 146.484 120.51V120.503Z" fill="white"/>
<path opacity="0.5" d="M148.629 129.675C149.69 130.034 153.406 129.136 153.406 129.136C153.406 129.136 150.967 126.193 149.906 125.839C149.396 125.67 148.84 125.71 148.36 125.95C147.88 126.191 147.515 126.613 147.345 127.122C147.176 127.632 147.216 128.188 147.457 128.668C147.698 129.148 148.119 129.513 148.629 129.682V129.675Z" fill="white"/>
<path opacity="0.5" d="M145.671 154.576H160.996L164.828 131.205H141.84L145.671 154.576Z" fill="#655B7F"/>
<path opacity="0.1" d="M144.773 131.205L148.352 153.044H161.247L160.996 154.576H145.671L141.84 131.205H144.773Z" fill="#212128"/>
</g>
</g>
<g clip-path="url(#clip1_3906_2663)">
<path d="M109.817 87.8161L47.7104 103.809C45.6036 104.349 43.3688 104.031 41.496 102.926C39.6233 101.82 38.2656 100.017 37.7209 97.911L18.9383 24.9722C18.3984 22.8655 18.7161 20.6306 19.8218 18.7579C20.9276 16.8852 22.731 15.5275 24.8365 14.9828L82.6163 0.103836L97.4052 6.72434L115.715 77.8267C116.255 79.9334 115.937 82.1683 114.831 84.041C113.726 85.9137 111.922 87.2714 109.817 87.8161Z" fill="#F2F2F2"/>
<path d="M25.4254 17.2696C23.926 17.6575 22.6417 18.6244 21.8543 19.958C21.0669 21.2916 20.8406 22.8831 21.2251 24.3833L40.0077 97.3221C40.3956 98.8215 41.3624 100.106 42.696 100.893C44.0297 101.681 45.6212 101.907 47.1214 101.522L109.228 85.5292C110.727 85.1413 112.011 84.1745 112.799 82.8409C113.586 81.5073 113.812 79.9158 113.428 78.4156L95.4019 8.41493L82.4052 2.59667L25.4254 17.2696Z" fill="white"/>
<path d="M97.2474 7.10061L87.6356 9.57575C86.9339 9.75644 86.1892 9.65099 85.5653 9.28259C84.9413 8.91419 84.4893 8.31302 84.3086 7.61133L82.4805 0.512205C82.4725 0.481125 82.4734 0.448418 82.4831 0.417836C82.4929 0.387254 82.511 0.360035 82.5355 0.339299C82.56 0.318563 82.5899 0.30515 82.6216 0.3006C82.6534 0.296049 82.6858 0.300543 82.7151 0.313568L97.2741 6.77919C97.3065 6.79358 97.3336 6.8177 97.3517 6.8482C97.3698 6.8787 97.3779 6.91406 97.375 6.94939C97.372 6.98472 97.3582 7.01826 97.3353 7.04536C97.3125 7.07245 97.2817 7.09176 97.2474 7.10061Z" fill="#F2F2F2"/>
<path d="M92.1908 69.3888L63.9147 76.6702C63.741 76.7149 63.5601 76.725 63.3825 76.6999C63.2049 76.6747 63.034 76.6148 62.8795 76.5236C62.725 76.4324 62.59 76.3117 62.4822 76.1683C62.3744 76.0249 62.2959 75.8617 62.2512 75.688C62.2064 75.5143 62.1964 75.3334 62.2215 75.1558C62.2467 74.9782 62.3065 74.8073 62.3977 74.6528C62.489 74.4983 62.6097 74.3633 62.7531 74.2555C62.8964 74.1477 63.0597 74.0692 63.2334 74.0245L91.5095 66.743C91.6832 66.6983 91.864 66.6882 92.0417 66.7134C92.2193 66.7385 92.3902 66.7984 92.5447 66.8896C92.6992 66.9808 92.8341 67.1016 92.942 67.245C93.0498 67.3883 93.1283 67.5515 93.173 67.7253C93.2177 67.899 93.2278 68.0798 93.2027 68.2574C93.1775 68.435 93.1176 68.606 93.0264 68.7604C92.9352 68.9149 92.8145 69.0499 92.6711 69.1577C92.5277 69.2655 92.3645 69.344 92.1908 69.3888Z" fill="#D8D9DD"/>
<path d="M98.797 72.4482L65.0641 81.1348C64.7132 81.2252 64.3409 81.1725 64.0289 80.9883C63.7169 80.8041 63.4909 80.5035 63.4006 80.1526C63.3102 79.8018 63.363 79.4294 63.5472 79.1175C63.7314 78.8055 64.0319 78.5795 64.3828 78.4891L98.1157 69.8025C98.4664 69.7125 98.8385 69.7655 99.1502 69.9497C99.4619 70.1339 99.6877 70.4344 99.778 70.785C99.8683 71.1357 99.8157 71.5078 99.6318 71.8197C99.4478 72.1315 99.1476 72.3576 98.797 72.4482Z" fill="#D8D9DD"/>
<path d="M52.374 85.4399C55.0405 85.4399 57.2021 83.2783 57.2021 80.6118C57.2021 77.9453 55.0405 75.7837 52.374 75.7837C49.7075 75.7837 47.5459 77.9453 47.5459 80.6118C47.5459 83.2783 49.7075 85.4399 52.374 85.4399Z" fill="#E6E6E6"/>
<path d="M89.184 56.7533L51.6304 66.4201C50.5451 66.6982 49.3939 66.5344 48.4292 65.9647C47.4645 65.395 46.7651 64.4659 46.4846 63.3812L38.6148 32.8088C38.3367 31.7235 38.5005 30.5722 39.0702 29.6075C39.64 28.6428 40.5691 27.9435 41.6537 27.663L79.2073 17.9961C80.2926 17.718 81.4439 17.8818 82.4085 18.4515C83.3732 19.0213 84.0726 19.9504 84.3531 21.035L92.2229 51.6075C92.501 52.6928 92.3372 53.844 91.7675 54.8087C91.1977 55.7734 90.2686 56.4727 89.184 56.7533Z" fill="white"/>
<path d="M89.184 56.7533L51.6304 66.4201C50.5451 66.6982 49.3939 66.5344 48.4292 65.9647C47.4645 65.395 46.7651 64.4659 46.4846 63.3812L38.6148 32.8088C38.3367 31.7235 38.5005 30.5722 39.0702 29.6075C39.64 28.6428 40.5691 27.9435 41.6537 27.663L79.2073 17.9961C80.2926 17.718 81.4439 17.8818 82.4085 18.4515C83.3732 19.0213 84.0726 19.9504 84.3531 21.035L92.2229 51.6075C92.501 52.6928 92.3372 53.844 91.7675 54.8087C91.1977 55.7734 90.2686 56.4727 89.184 56.7533ZM41.7777 28.1444C40.8206 28.392 40.0008 29.009 39.4981 29.8602C38.9954 30.7114 38.8509 31.7272 39.0963 32.6849L46.9661 63.2573C47.2136 64.2143 47.8307 65.0341 48.6819 65.5368C49.5331 66.0395 50.5489 66.184 51.5065 65.9387L89.06 56.2718C90.0171 56.0243 90.8369 55.4072 91.3396 54.556C91.8423 53.7048 91.9868 52.689 91.7415 51.7314L83.8716 21.159C83.6241 20.2019 83.007 19.3821 82.1558 18.8794C81.3046 18.3767 80.2888 18.2322 79.3312 18.4776L41.7777 28.1444Z" fill="#E6E6E6"/>
<path d="M77.3021 28.2757L58.3493 33.1545C58.1836 33.2007 58.0065 33.1824 57.8539 33.1031C57.7012 33.0238 57.5843 32.8895 57.5269 32.7273C57.5002 32.6426 57.491 32.5533 57.4999 32.4649C57.5088 32.3766 57.5356 32.2909 57.5787 32.2132C57.6218 32.1356 57.6803 32.0675 57.7506 32.0132C57.8208 31.9588 57.9014 31.9194 57.9875 31.8972L77.2802 26.931C78.0595 27.3259 77.8545 28.1335 77.3018 28.2758L77.3021 28.2757Z" fill="#F2F2F2"/>
<path d="M78.158 31.6002L59.2052 36.4789C59.0396 36.5252 58.8625 36.5068 58.7098 36.4275C58.5571 36.3482 58.4403 36.2139 58.3828 36.0518C58.3561 35.967 58.3469 35.8778 58.3558 35.7894C58.3647 35.701 58.3916 35.6154 58.4347 35.5377C58.4778 35.46 58.5362 35.3919 58.6065 35.3376C58.6768 35.2833 58.7574 35.2438 58.8434 35.2217L78.1362 30.2554C78.9155 30.6503 78.7104 31.458 78.1578 31.6002L78.158 31.6002Z" fill="#F2F2F2"/>
<path d="M55.5953 39.4264L49.8111 40.9154C49.6222 40.9638 49.4218 40.9353 49.2538 40.8361C49.0859 40.737 48.9642 40.5752 48.9154 40.3864L47.1583 33.5606C47.1099 33.3717 47.1384 33.1713 47.2376 33.0034C47.3367 32.8355 47.4985 32.7137 47.6873 32.6649L53.4715 31.176C53.6604 31.1276 53.8608 31.1562 54.0287 31.2553C54.1966 31.3545 54.3183 31.5162 54.3672 31.7049L56.1242 38.5308C56.1727 38.7197 56.1442 38.9201 56.045 39.088C55.9458 39.2559 55.7841 39.3776 55.5953 39.4264V39.4264Z" fill="#E6E6E6"/>
<path d="M79.8553 38.4212L50.9299 45.8671C50.7642 45.9133 50.5871 45.8949 50.4344 45.8156C50.2818 45.7363 50.1649 45.602 50.1075 45.4399C50.0807 45.3552 50.0715 45.2659 50.0804 45.1775C50.0894 45.0891 50.1162 45.0035 50.1593 44.9258C50.2024 44.8481 50.2608 44.7801 50.3311 44.7257C50.4014 44.6714 50.482 44.632 50.568 44.6098L79.8336 37.0764C80.613 37.4713 80.4079 38.2789 79.8553 38.4212L79.8553 38.4212Z" fill="#F2F2F2"/>
<path d="M80.7112 41.7466L51.7858 49.1925C51.6201 49.2387 51.4431 49.2203 51.2904 49.141C51.1377 49.0617 51.0209 48.9274 50.9634 48.7653C50.9367 48.6806 50.9275 48.5913 50.9364 48.5029C50.9453 48.4145 50.9721 48.3289 51.0152 48.2512C51.0583 48.1736 51.1168 48.1055 51.1871 48.0511C51.2574 47.9968 51.338 47.9574 51.424 47.9352L80.6896 40.4018C81.469 40.7967 81.2639 41.6044 80.7112 41.7466V41.7466Z" fill="#F2F2F2"/>
<path d="M81.5667 45.0699L52.6413 52.5157C52.4756 52.562 52.2985 52.5436 52.1459 52.4643C51.9932 52.385 51.8763 52.2507 51.8189 52.0885C51.7922 52.0038 51.783 51.9145 51.7919 51.8262C51.8008 51.7378 51.8276 51.6521 51.8707 51.5745C51.9138 51.4968 51.9723 51.4287 52.0425 51.3744C52.1128 51.3201 52.1934 51.2806 52.2795 51.2585L81.5451 43.725C82.3244 44.1199 82.1193 44.9276 81.5667 45.0699Z" fill="#F2F2F2"/>
<path d="M82.4226 48.395L53.4973 55.8409C53.3316 55.8871 53.1545 55.8687 53.0018 55.7894C52.8492 55.7101 52.7323 55.5758 52.6748 55.4137C52.6481 55.329 52.6389 55.2397 52.6478 55.1513C52.6567 55.0629 52.6836 54.9773 52.7267 54.8996C52.7698 54.8219 52.8282 54.7539 52.8985 54.6995C52.9688 54.6452 53.0494 54.6058 53.1354 54.5836L82.401 47.0502C83.1804 47.4451 82.9753 48.2528 82.4227 48.395L82.4226 48.395Z" fill="#F2F2F2"/>
<path d="M83.2781 51.7185L54.3527 59.1644C54.187 59.2106 54.0099 59.1922 53.8573 59.1129C53.7046 59.0336 53.5877 58.8993 53.5303 58.7372C53.5036 58.6525 53.4944 58.5632 53.5033 58.4748C53.5122 58.3864 53.539 58.3008 53.5821 58.2231C53.6252 58.1454 53.6837 58.0774 53.754 58.023C53.8242 57.9687 53.9049 57.9293 53.9909 57.9071L83.2565 50.3737C84.0358 50.7686 83.8308 51.5762 83.2781 51.7185Z" fill="#F2F2F2"/>
<path d="M52.7301 82.3042C52.6249 82.3315 52.5138 82.3238 52.4134 82.2824L52.4071 82.2798L51.0919 81.7222C51.0308 81.6964 50.9755 81.6588 50.929 81.6115C50.8825 81.5643 50.8458 81.5083 50.8209 81.4469C50.7961 81.3854 50.7836 81.3197 50.7842 81.2534C50.7848 81.1871 50.7984 81.1216 50.8244 81.0606C50.8503 80.9996 50.888 80.9443 50.9354 80.8979C50.9827 80.8515 51.0387 80.8148 51.1002 80.7901C51.1617 80.7653 51.2274 80.753 51.2937 80.7537C51.36 80.7544 51.4255 80.7681 51.4865 80.7942L52.3387 81.1567L53.4556 78.5294C53.4815 78.4685 53.5191 78.4133 53.5664 78.3669C53.6136 78.3205 53.6695 78.2839 53.7309 78.2592C53.7923 78.2344 53.8579 78.222 53.9241 78.2226C53.9903 78.2232 54.0557 78.2369 54.1166 78.2628L54.1168 78.2629L54.1101 78.28L54.1171 78.2628C54.24 78.3152 54.3371 78.4143 54.3871 78.5383C54.4371 78.6622 54.4358 78.801 54.3836 78.924L53.0697 82.0131C53.0392 82.0843 52.9928 82.1476 52.9339 82.1979C52.8751 82.2483 52.8054 82.2844 52.7303 82.3035L52.7301 82.3042Z" fill="white"/>
<path d="M133.638 115.611H69.5057C67.3309 115.609 65.2459 114.744 63.708 113.206C62.1702 111.668 61.3052 109.583 61.3027 107.408V32.0899C61.3052 29.9151 62.1702 27.83 63.708 26.2922C65.2459 24.7544 67.3309 23.8894 69.5057 23.8869H129.17L141.841 33.9862V107.408C141.839 109.583 140.974 111.668 139.436 113.206C137.898 114.744 135.813 115.609 133.638 115.611Z" fill="#E6E6E6"/>
<path d="M69.5056 26.2484C67.9569 26.2501 66.4721 26.8661 65.3769 27.9612C64.2818 29.0564 63.6658 30.5412 63.6641 32.0899V107.408C63.6658 108.957 64.2818 110.442 65.3769 111.537C66.4721 112.632 67.9569 113.248 69.5056 113.25H133.638C135.187 113.248 136.672 112.632 137.767 111.537C138.862 110.442 139.478 108.957 139.48 107.408V35.1239L128.344 26.2484H69.5056Z" fill="white"/>
<path d="M121.164 48.1489H91.9656C91.6033 48.1489 91.2559 48.005 90.9997 47.7488C90.7435 47.4926 90.5996 47.1452 90.5996 46.7829C90.5996 46.4206 90.7435 46.0732 90.9997 45.817C91.2559 45.5608 91.6033 45.4169 91.9656 45.4169H121.164C121.527 45.4169 121.874 45.5608 122.13 45.817C122.386 46.0732 122.53 46.4206 122.53 46.7829C122.53 47.1452 122.386 47.4926 122.13 47.7488C121.874 48.005 121.527 48.1489 121.164 48.1489Z" fill="#B34943"/>
<path d="M126.799 52.7592H91.9657C91.6038 52.7587 91.2568 52.6146 91.001 52.3585C90.7452 52.1024 90.6016 51.7552 90.6016 51.3932C90.6016 51.0312 90.7452 50.6841 91.001 50.4279C91.2568 50.1718 91.6038 50.0277 91.9657 50.0272H126.799C126.979 50.027 127.157 50.0621 127.322 50.1306C127.488 50.1992 127.639 50.2998 127.766 50.4266C127.893 50.5535 127.994 50.7042 128.063 50.87C128.132 51.0359 128.167 51.2137 128.167 51.3932C128.167 51.5727 128.132 51.7505 128.063 51.9164C127.994 52.0822 127.893 52.2329 127.766 52.3598C127.639 52.4867 127.488 52.5872 127.322 52.6558C127.157 52.7243 126.979 52.7595 126.799 52.7592Z" fill="#B34943"/>
<path d="M121.165 66.0771H91.967C91.6047 66.0771 91.2573 66.221 91.0011 66.4772C90.745 66.7333 90.6011 67.0807 90.6011 67.443C90.6011 67.8053 90.745 68.1527 91.0011 68.4089C91.2573 68.665 91.6047 68.8089 91.967 68.8089H121.165C121.527 68.8089 121.874 68.665 122.131 68.4089C122.387 68.1527 122.531 67.8053 122.531 67.443C122.531 67.0807 122.387 66.7333 122.131 66.4772C121.874 66.221 121.527 66.0771 121.165 66.0771Z" fill="#D8D9DD"/>
<path d="M126.8 70.6882H91.967C91.6047 70.6882 91.2573 70.8321 91.0011 71.0882C90.745 71.3444 90.6011 71.6918 90.6011 72.0541C90.6011 72.4164 90.745 72.7638 91.0011 73.0199C91.2573 73.2761 91.6047 73.42 91.967 73.42H126.8C127.162 73.42 127.51 73.2761 127.766 73.0199C128.022 72.7638 128.166 72.4164 128.166 72.0541C128.166 71.6918 128.022 71.3444 127.766 71.0882C127.51 70.8321 127.162 70.6882 126.8 70.6882Z" fill="#D8D9DD"/>
<path d="M121.164 89.4709H91.9656C91.6033 89.4709 91.2559 89.327 90.9997 89.0708C90.7435 88.8146 90.5996 88.4672 90.5996 88.1049C90.5996 87.7426 90.7435 87.3952 90.9997 87.139C91.2559 86.8828 91.6033 86.7389 91.9656 86.7389H121.164C121.527 86.7389 121.874 86.8828 122.13 87.139C122.386 87.3952 122.53 87.7426 122.53 88.1049C122.53 88.4672 122.386 88.8146 122.13 89.0708C121.874 89.327 121.527 89.4709 121.164 89.4709Z" fill="#D8D9DD"/>
<path d="M126.799 94.0812H91.9657C91.6038 94.0807 91.2568 93.9366 91.001 93.6805C90.7452 93.4243 90.6016 93.0772 90.6016 92.7152C90.6016 92.3532 90.7452 92.0061 91.001 91.7499C91.2568 91.4938 91.6038 91.3497 91.9657 91.3492H126.799C126.979 91.3489 127.157 91.3841 127.322 91.4526C127.488 91.5212 127.639 91.6218 127.766 91.7486C127.893 91.8755 127.994 92.0262 128.063 92.192C128.132 92.3579 128.167 92.5357 128.167 92.7152C128.167 92.8947 128.132 93.0725 128.063 93.2384C127.994 93.4042 127.893 93.5549 127.766 93.6818C127.639 93.8086 127.488 93.9092 127.322 93.9778C127.157 94.0463 126.979 94.0815 126.799 94.0812Z" fill="#D8D9DD"/>
<path d="M79.8066 53.9162C82.4731 53.9162 84.6348 51.7545 84.6348 49.088C84.6348 46.4216 82.4731 44.2599 79.8066 44.2599C77.1401 44.2599 74.9785 46.4216 74.9785 49.088C74.9785 51.7545 77.1401 53.9162 79.8066 53.9162Z" fill="#B34943"/>
<path d="M79.3281 50.9298C79.2195 50.93 79.1138 50.8949 79.0269 50.8297L79.0215 50.8257L77.8868 49.9577C77.8341 49.9175 77.7898 49.8672 77.7566 49.8099C77.7233 49.7525 77.7016 49.6892 77.6929 49.6234C77.6841 49.5577 77.6884 49.4909 77.7055 49.4268C77.7226 49.3628 77.7522 49.3027 77.7925 49.2501C77.8329 49.1974 77.8832 49.1533 77.9406 49.1202C77.9981 49.087 78.0615 49.0655 78.1272 49.0569C78.193 49.0483 78.2598 49.0527 78.3238 49.07C78.3878 49.0872 78.4478 49.1169 78.5004 49.1574L79.2353 49.7209L80.972 47.4552C81.0123 47.4027 81.0625 47.3586 81.1198 47.3255C81.1772 47.2923 81.2404 47.2708 81.306 47.2622C81.3717 47.2535 81.4384 47.2578 81.5023 47.2749C81.5662 47.292 81.6262 47.3216 81.6787 47.3619L81.6789 47.362L81.6681 47.3769L81.6792 47.362C81.7851 47.4434 81.8545 47.5636 81.8719 47.6961C81.8894 47.8286 81.8536 47.9626 81.7724 48.0688L79.7296 50.7326C79.6824 50.794 79.6216 50.8436 79.552 50.8777C79.4825 50.9118 79.406 50.9295 79.3286 50.9292L79.3281 50.9298Z" fill="white"/>
<path d="M85.1313 69.7486C85.1315 70.3827 85.0068 71.0106 84.7643 71.5966C84.5219 72.1825 84.1663 72.7149 83.7181 73.1634C83.2698 73.6119 82.7375 73.9677 82.1517 74.2105C81.5659 74.4533 80.9381 74.5783 80.3039 74.5784C80.2624 74.5792 80.2209 74.5775 80.1796 74.5734C79.2303 74.5491 78.3093 74.2453 77.5317 73.7001C76.7542 73.1549 76.1547 72.3925 75.8083 71.5083C75.4619 70.6241 75.3839 69.6573 75.5842 68.729C75.7844 67.8007 76.254 66.9521 76.9342 66.2894C77.6143 65.6267 78.4748 65.1792 79.408 65.0031C80.3411 64.827 81.3055 64.9299 82.1805 65.2992C83.0554 65.6684 83.802 66.2874 84.3269 67.0789C84.8517 67.8703 85.1315 68.7989 85.1313 69.7486Z" fill="#D8D9DD"/>
<path d="M79.8066 95.2382C82.4731 95.2382 84.6348 93.0766 84.6348 90.4101C84.6348 87.7436 82.4731 85.582 79.8066 85.582C77.1401 85.582 74.9785 87.7436 74.9785 90.4101C74.9785 93.0766 77.1401 95.2382 79.8066 95.2382Z" fill="#D8D9DD"/>
<path d="M141.594 34.3113H131.669C130.944 34.3113 130.25 34.0234 129.737 33.5111C129.225 32.9987 128.937 32.3038 128.937 31.5792V24.2485C128.937 24.2164 128.946 24.185 128.963 24.1578C128.98 24.1306 129.005 24.1087 129.033 24.0948C129.062 24.0808 129.095 24.0753 129.126 24.0788C129.158 24.0823 129.189 24.0947 129.214 24.1147L141.7 34.0067C141.728 34.0287 141.749 34.0588 141.758 34.0928C141.768 34.1269 141.767 34.1632 141.756 34.1966C141.744 34.2301 141.722 34.2592 141.693 34.2797C141.664 34.3002 141.63 34.3113 141.594 34.3113Z" fill="#D8D9DD"/>
<path d="M85.131 69.7486C85.1313 70.3827 85.0066 71.0106 84.7641 71.5966C84.5216 72.1825 84.1661 72.7149 83.7178 73.1634C83.2696 73.6119 82.7373 73.9677 82.1515 74.2105C81.5657 74.4533 80.9378 74.5783 80.3037 74.5784C80.2622 74.5792 80.2207 74.5775 80.1794 74.5734C79.5557 73.0176 79.3152 71.3347 79.4783 69.6665C79.6414 67.9983 80.2033 66.3938 81.1166 64.9883C82.2397 65.1809 83.2585 65.7642 83.9932 66.6353C84.7278 67.5064 85.1308 68.6091 85.131 69.7486Z" fill="#B34943"/>
<path d="M90.5996 67.4443C90.6003 67.0819 90.7445 66.7345 91.0008 66.4782C91.257 66.222 91.6044 66.0777 91.9668 66.0771H99.2426C99.6675 66.9414 99.9696 67.861 100.14 68.8089H91.9668C91.6046 68.8089 91.2573 68.6651 91.001 68.4093C90.7447 68.1534 90.6004 67.8064 90.5996 67.4443Z" fill="#D8D9DD"/>
<path d="M100.309 70.6882C100.31 71.6108 100.188 72.5295 99.9463 73.42H91.967C91.6047 73.42 91.2573 73.2761 91.0011 73.0199C90.745 72.7638 90.6011 72.4164 90.6011 72.0541C90.6011 71.6918 90.745 71.3444 91.0011 71.0882C91.2573 70.8321 91.6047 70.6882 91.967 70.6882H100.309Z" fill="#D8D9DD"/>
<path d="M118.311 87.536C118.105 87.8737 117.774 88.1157 117.389 88.2088C117.005 88.302 116.599 88.2386 116.261 88.0326L98.8598 77.4184C98.6926 77.3164 98.5471 77.1824 98.4317 77.0242C98.3162 76.866 98.2331 76.6866 98.187 76.4962C98.1408 76.3059 98.1327 76.1083 98.1629 75.9148C98.1931 75.7213 98.2612 75.5356 98.3632 75.3684C98.4652 75.2012 98.5991 75.0557 98.7573 74.9403C98.9155 74.8248 99.0949 74.7417 99.2853 74.6956C99.4757 74.6494 99.6732 74.6413 99.8667 74.6715C100.06 74.7017 100.246 74.7698 100.413 74.8718L117.815 85.486C118.152 85.692 118.394 86.0237 118.487 86.4082C118.581 86.7926 118.517 87.1983 118.311 87.536Z" fill="#B34943"/>
<path d="M100.91 76.9217C99.681 78.9364 97.8823 80.5414 95.7413 81.5338C93.6002 82.5262 91.213 82.8614 88.8814 82.4971C86.5499 82.1327 84.3787 81.0852 82.6425 79.4869C80.9063 77.8886 79.6831 75.8114 79.1274 73.5179C78.5718 71.2244 78.7088 68.8176 79.521 66.6019C80.3332 64.3863 81.7842 62.4612 83.6905 61.0702C85.5967 59.6791 87.8727 58.8846 90.2305 58.7871C92.5884 58.6896 94.9222 59.2934 96.9368 60.5223C99.6356 62.1726 101.57 64.8261 102.314 67.9005C103.059 70.9749 102.554 74.2193 100.91 76.9217ZM83.0839 66.0486C82.1623 67.5596 81.7094 69.31 81.7825 71.0783C81.8557 72.8467 82.4516 74.5537 83.4948 75.9834C84.5381 77.4131 85.9819 78.5014 87.6437 79.1105C89.3054 79.7197 91.1105 79.8224 92.8306 79.4057C94.5507 78.9889 96.1087 78.0715 97.3074 76.7693C98.5061 75.4672 99.2917 73.8388 99.565 72.0902C99.8383 70.3415 99.5869 68.5511 98.8426 66.9453C98.0983 65.3395 96.8945 63.9905 95.3835 63.0689C93.3567 61.8357 90.9234 61.4569 88.6176 62.0155C86.3118 62.5741 84.3217 64.0246 83.0839 66.0486Z" fill="#B34943"/>
<path d="M139.138 72.6216C142.51 72.6216 145.244 69.8882 145.244 66.5163C145.244 63.1445 142.51 60.4111 139.138 60.4111C135.767 60.4111 133.033 63.1445 133.033 66.5163C133.033 69.8882 135.767 72.6216 139.138 72.6216Z" fill="#EBD09D"/>
<path d="M138.744 100.743C138.626 100.376 138.587 99.9885 138.63 99.6056C138.672 99.2227 138.795 98.853 138.991 98.5209C139.186 98.1888 139.449 97.9017 139.763 97.6784C140.077 97.4551 140.435 97.3007 140.813 97.2253C140.933 97.202 141.054 97.187 141.176 97.1807L147.607 86.859L141.732 81.2743C141.508 81.0609 141.328 80.8052 141.203 80.5219C141.078 80.2386 141.01 79.9333 141.004 79.6236C140.997 79.314 141.052 79.0062 141.165 78.7179C141.278 78.4297 141.448 78.1667 141.663 77.9442C141.878 77.7217 142.136 77.544 142.42 77.4215C142.705 77.2991 143.011 77.2341 143.32 77.2305C143.63 77.2269 143.937 77.2847 144.225 77.4006C144.512 77.5164 144.773 77.688 144.994 77.9054L153.105 85.903L153.121 85.9229C153.372 86.3047 153.493 86.7572 153.466 87.2132C153.44 87.6693 153.267 88.1046 152.973 88.4546L143.962 99.1117C143.989 99.1972 144.012 99.2839 144.029 99.3717C144.105 99.7496 144.099 100.139 144.014 100.515C143.928 100.89 143.764 101.244 143.532 101.552C143.3 101.859 143.006 102.115 142.669 102.301C142.332 102.487 141.959 102.6 141.575 102.632C141.497 102.639 141.42 102.642 141.343 102.642C140.765 102.64 140.202 102.455 139.736 102.114C139.269 101.773 138.922 101.293 138.744 100.743Z" fill="#EBD09D"/>
<path d="M129.083 151.486L126.036 151.486L124.586 139.732L129.084 139.732L129.083 151.486Z" fill="#EBD09D"/>
<path d="M129.86 154.44L120.034 154.44V154.316C120.034 153.814 120.133 153.316 120.325 152.852C120.518 152.388 120.799 151.967 121.154 151.611C121.51 151.256 121.931 150.974 122.395 150.782C122.859 150.59 123.357 150.491 123.859 150.491H123.859L129.861 150.491L129.86 154.44Z" fill="#212128"/>
<path d="M159.374 147.273L156.755 148.832L149.496 139.474L153.36 137.173L159.374 147.273Z" fill="#EBD09D"/>
<path d="M161.552 149.413L153.109 154.44L153.046 154.334C152.789 153.902 152.619 153.424 152.547 152.927C152.475 152.43 152.501 151.924 152.625 151.437C152.748 150.95 152.966 150.492 153.267 150.09C153.567 149.687 153.944 149.348 154.375 149.091L154.375 149.091L159.532 146.02L161.552 149.413Z" fill="#212128"/>
<path d="M124.202 146.31C122.16 122.271 120.946 99.9393 128.409 90.8294L128.466 90.7588L141.026 95.7827L141.046 95.8276C141.089 95.9199 145.266 105.108 144.291 111.288L147.389 125.538L157.49 142.451C157.572 142.587 157.623 142.739 157.641 142.897C157.659 143.054 157.644 143.214 157.596 143.365C157.548 143.516 157.468 143.655 157.362 143.773C157.256 143.891 157.126 143.985 156.981 144.049L152.591 145.98C152.343 146.088 152.065 146.103 151.807 146.023C151.549 145.942 151.329 145.771 151.187 145.541L140.199 127.624L133.992 113.881C133.959 113.807 133.901 113.745 133.829 113.707C133.757 113.668 133.674 113.654 133.594 113.667C133.513 113.68 133.438 113.719 133.382 113.778C133.326 113.838 133.291 113.914 133.282 113.995L129.842 146.334C129.813 146.609 129.683 146.863 129.478 147.048C129.272 147.233 129.006 147.335 128.729 147.335H125.317C125.037 147.333 124.767 147.227 124.561 147.038C124.355 146.848 124.227 146.589 124.202 146.31Z" fill="#504E6F"/>
<path d="M128.451 91.0199L128.391 90.9913L128.382 90.9255C127.912 87.6418 128.468 83.9933 130.032 80.0814C130.803 78.1668 132.236 76.5929 134.071 75.6465C135.905 74.7001 138.018 74.4441 140.025 74.9252C141.181 75.2101 142.266 75.732 143.21 76.4579C144.154 77.1837 144.937 78.0977 145.509 79.142C146.074 80.1755 146.418 81.3151 146.52 82.4886C146.621 83.6621 146.478 84.8439 146.099 85.9591C144.127 91.7261 141.568 97.1219 141.543 97.1758L141.489 97.2884L128.451 91.0199Z" fill="#CBCCE1"/>
<path d="M114.748 82.841C115.05 82.6022 115.399 82.43 115.773 82.3357C116.147 82.2414 116.536 82.2271 116.915 82.2938C117.295 82.3604 117.656 82.5065 117.975 82.7225C118.294 82.9384 118.564 83.2194 118.767 83.5469C118.831 83.6508 118.887 83.7591 118.936 83.871L130.856 86.2802L134.03 78.8221C134.151 78.5371 134.328 78.279 134.549 78.0626C134.771 77.8462 135.033 77.6759 135.321 77.5615C135.609 77.447 135.916 77.3907 136.226 77.3958C136.536 77.4009 136.841 77.4673 137.125 77.5911C137.409 77.715 137.665 77.8938 137.88 78.1174C138.094 78.3409 138.262 78.6047 138.374 78.8935C138.486 79.1823 138.539 79.4904 138.531 79.8C138.523 80.1096 138.454 80.4145 138.328 80.6973L133.677 91.0952L133.664 91.1175C133.394 91.4862 133.013 91.7581 132.576 91.8929C132.14 92.0276 131.671 92.0181 131.241 91.8656L118.103 87.1574C118.032 87.2125 117.959 87.2639 117.883 87.3113C117.555 87.5142 117.189 87.6457 116.807 87.6969C116.425 87.7482 116.036 87.7183 115.667 87.609C115.297 87.4997 114.955 87.3136 114.663 87.0628C114.37 86.812 114.134 86.5023 113.969 86.1538C113.936 86.0835 113.906 86.0124 113.879 85.9404C113.679 85.3981 113.655 84.8064 113.811 84.2498C113.967 83.6933 114.295 83.2002 114.748 82.841Z" fill="#EBD09D"/>
<path d="M161.194 73.0545C160.606 72.0126 159.75 71.0582 158.617 70.673C157.154 70.1756 155.57 70.7052 154.066 71.0588C152.907 71.3313 151.697 71.498 150.529 71.2681C149.361 71.0382 148.234 70.3585 147.703 69.2934C146.921 67.7265 147.58 65.858 147.532 64.1075C147.508 63.1546 147.267 62.2197 146.829 61.3733C146.391 60.5268 145.766 59.7909 145.002 59.221C144.238 58.6511 143.354 58.2621 142.418 58.0833C141.482 57.9045 140.517 57.9406 139.597 58.1888C138.157 57.7732 136.853 57.7347 135.962 58.8418C134.841 58.8418 133.767 59.287 132.974 60.0795C132.182 60.872 131.736 61.9469 131.736 63.0676H135.777C135.585 64.0979 135.804 65.1623 136.387 66.0334C137.1 67.0813 138.341 67.8394 138.579 69.0844C138.811 70.2909 137.991 71.4356 137.13 72.3126C136.27 73.1895 135.272 74.0585 135.004 75.2573C134.839 76.1673 135.026 77.1058 135.527 77.8834C136.026 78.6515 136.646 79.3343 137.363 79.9057C140.59 82.6711 144.427 84.6336 148.558 85.633C151.467 86.3334 154.649 86.515 157.35 85.2265C158.431 84.711 159.394 83.9789 160.179 83.0756C160.965 82.1723 161.556 81.1171 161.917 79.9756C162.277 78.8341 162.399 77.6306 162.275 76.44C162.151 75.2494 161.783 74.097 161.194 73.0545Z" fill="#3F3D56"/>
<path d="M161.981 154.736H90.8908C90.7915 154.736 90.6963 154.708 90.6262 154.657C90.556 154.607 90.5166 154.538 90.5166 154.467C90.5166 154.395 90.556 154.327 90.6262 154.276C90.6963 154.226 90.7915 154.197 90.8908 154.197H161.981C162.08 154.197 162.175 154.226 162.245 154.276C162.316 154.327 162.355 154.395 162.355 154.467C162.355 154.538 162.316 154.607 162.245 154.657C162.175 154.708 162.08 154.736 161.981 154.736Z" fill="#D8D9DD"/>
</g>
<defs>
<clipPath id="clip0_3906_2663">
<rect width="200" height="151.604" fill="white" transform="translate(0 14.2919)"/>
</clipPath>
<clipPath id="clip1_3906_2663">
<rect width="143.677" height="154.595" fill="white" transform="translate(18.6782 0.103828)"/>
</clipPath>
</defs>
</svg>
