<svg width="200" height="166" viewBox="0 0 200 166" fill="none" xmlns="http://www.w3.org/2000/svg">
<g clip-path="url(#clip0_8965_2051)">
<path opacity="0.1" d="M188.037 96.4826C181.006 106.13 183.326 119.902 187.391 130.873C188.752 134.546 190.298 138.431 189.592 142.427C188.73 147.312 184.679 150.972 180.467 152.966C172.789 156.599 163.72 156.019 156.852 151.441C150.925 147.49 146.753 140.924 140.712 137.161C130.6 130.866 117.474 133.679 106.22 138.485C98.2588 141.884 89.5376 146.263 81.7791 143.124C76.3194 140.915 72.643 135.292 70.7088 129.28C69.7749 126.378 69.1211 123.228 67.2605 120.956C66.1542 119.606 64.6923 118.664 63.1891 117.878C49.4697 110.694 31.8226 115.184 18.5217 107.169C9.54194 101.756 3.95291 91.2509 1.63073 80.2076C-0.691449 69.1642 -0.116742 57.5066 0.808178 46.0484C1.4655 37.9055 2.50536 29.2041 7.40115 22.8051C12.5789 16.0397 21.257 13.3511 29.0173 14.4108C36.7777 15.4704 43.7352 19.7807 49.8217 24.9261C57.4348 31.3449 64.4391 39.4034 73.9074 41.8405C80.3567 43.4999 87.2083 42.3254 93.9126 41.8063C105.119 40.9407 116.287 41.9375 127.386 43.0635C138.011 44.1411 148.709 45.3444 158.772 48.877C165.893 51.377 171.538 56.1022 178.242 59.3313C182.612 61.4362 187.419 61.9247 191.532 64.6438C196.607 67.9933 201.194 73.9271 199.705 81.0481C198.299 87.8171 191.773 91.3623 188.037 96.4826Z" fill="#B34943"/>
<g opacity="0.5">
<path opacity="0.5" d="M153.553 140.488C153.553 140.488 154.145 122.93 163.644 113.009C167.631 108.846 170.25 103.559 170.943 97.837C171.267 95.1215 171.342 92.382 171.166 89.6528" stroke="#535461" stroke-width="2" stroke-miterlimit="10"/>
<path opacity="0.5" d="M177.116 83.3686C176.466 85.3298 171.031 89.8341 171.031 89.8341C171.031 89.8341 169.366 82.9717 170.016 81.0123C170.171 80.5461 170.416 80.115 170.737 79.7435C171.058 79.372 171.45 79.0674 171.888 78.8471C172.327 78.6268 172.805 78.4951 173.295 78.4595C173.785 78.424 174.277 78.4852 174.743 78.6398C175.209 78.7944 175.641 79.0393 176.012 79.3606C176.384 79.6818 176.688 80.073 176.909 80.512C177.129 80.9509 177.261 81.4289 177.296 81.9188C177.332 82.4086 177.27 82.9006 177.116 83.3668V83.3686Z" fill="#B34943"/>
<path opacity="0.5" d="M179.381 96.1739C177.764 97.467 170.76 98.2967 170.76 98.2967C170.76 98.2967 173.095 91.6319 174.711 90.3406C175.091 90.0097 175.534 89.7591 176.014 89.6038C176.493 89.4485 176.999 89.3917 177.501 89.4369C178.003 89.4821 178.491 89.6283 178.935 89.8667C179.379 90.1051 179.77 90.4309 180.085 90.8243C180.4 91.2178 180.632 91.6709 180.768 92.1563C180.903 92.6418 180.939 93.1496 180.873 93.6493C180.807 94.149 180.641 94.6302 180.385 95.0641C180.128 95.4979 179.787 95.8754 179.381 96.1739Z" fill="#B34943"/>
<path opacity="0.5" d="M172.973 114.643C170.929 114.945 164.458 112.129 164.458 112.129C164.458 112.129 169.835 107.553 171.879 107.251C172.365 107.179 172.86 107.204 173.336 107.323C173.813 107.443 174.261 107.655 174.655 107.948C175.049 108.241 175.382 108.608 175.635 109.03C175.887 109.451 176.054 109.918 176.125 110.404C176.197 110.89 176.173 111.385 176.053 111.861C175.934 112.338 175.721 112.786 175.429 113.18C175.136 113.575 174.768 113.907 174.347 114.16C173.925 114.412 173.459 114.579 172.973 114.65V114.643Z" fill="#B34943"/>
<path opacity="0.5" d="M164.975 127.528C163.012 128.171 156.157 126.483 156.157 126.483C156.157 126.483 160.685 121.064 162.648 120.421C163.59 120.112 164.617 120.189 165.502 120.637C166.387 121.084 167.059 121.865 167.368 122.807C167.678 123.75 167.6 124.776 167.153 125.662C166.706 126.547 165.925 127.218 164.982 127.528H164.975Z" fill="#B34943"/>
<path opacity="0.5" d="M163.179 96.2043C164.133 98.0362 170.221 101.623 170.221 101.623C170.221 101.623 170.774 94.5843 169.821 92.7507C169.594 92.315 169.284 91.9283 168.908 91.6126C168.531 91.2969 168.097 91.0584 167.629 90.9106C167.16 90.7628 166.668 90.7088 166.178 90.7515C165.689 90.7942 165.213 90.9328 164.778 91.1594C164.342 91.3861 163.955 91.6963 163.639 92.0724C163.324 92.4485 163.085 92.8831 162.937 93.3514C162.79 93.8197 162.736 94.3125 162.778 94.8017C162.821 95.2909 162.96 95.7669 163.186 96.2025L163.179 96.2043Z" fill="#B34943"/>
<path opacity="0.5" d="M154.018 111.389C155.476 112.853 162.351 114.455 162.351 114.455C162.351 114.455 160.773 107.573 159.316 106.109C158.616 105.406 157.666 105.011 156.674 105.009C155.682 105.007 154.73 105.399 154.028 106.099C153.325 106.799 152.93 107.749 152.928 108.741C152.926 109.733 153.318 110.685 154.018 111.387V111.389Z" fill="#B34943"/>
<path opacity="0.5" d="M147.139 127.371C148.328 129.06 154.835 131.802 154.835 131.802C154.835 131.802 154.444 124.753 153.253 123.063C152.977 122.644 152.62 122.285 152.203 122.006C151.786 121.728 151.317 121.537 150.825 121.443C150.332 121.35 149.826 121.357 149.336 121.463C148.846 121.569 148.382 121.773 147.972 122.062C147.563 122.351 147.215 122.72 146.951 123.146C146.687 123.572 146.511 124.047 146.434 124.543C146.357 125.038 146.38 125.544 146.503 126.03C146.625 126.517 146.844 126.973 147.147 127.373L147.139 127.371Z" fill="#B34943"/>
<path opacity="0.5" d="M155.64 133.221C155.64 133.221 150.252 125.383 151.196 118.009C151.613 114.919 151.015 111.777 149.494 109.054C148.761 107.768 147.913 106.551 146.958 105.419" stroke="#535461" stroke-width="2" stroke-miterlimit="10"/>
<path opacity="0.5" d="M147.527 100.768C147.874 101.831 146.958 105.542 146.958 105.542C146.958 105.542 144.025 103.088 143.679 102.027C143.512 101.517 143.555 100.961 143.798 100.482C144.041 100.003 144.464 99.6408 144.974 99.4741C145.485 99.3074 146.041 99.3502 146.519 99.5932C146.998 99.8362 147.361 100.259 147.527 100.77V100.768Z" fill="#B34943"/>
<path opacity="0.5" d="M152.633 105.615C152.348 106.693 149.56 109.313 149.56 109.313C149.56 109.313 148.433 105.66 148.718 104.579C148.855 104.06 149.194 103.617 149.658 103.347C150.122 103.077 150.675 103.002 151.194 103.14C151.713 103.277 152.156 103.615 152.426 104.079C152.696 104.544 152.771 105.096 152.633 105.615Z" fill="#B34943"/>
<path opacity="0.5" d="M155.784 115.719C154.992 116.508 151.265 117.361 151.265 117.361C151.265 117.361 152.134 113.638 152.928 112.85C153.117 112.662 153.34 112.514 153.586 112.413C153.833 112.311 154.096 112.26 154.362 112.261C154.628 112.262 154.891 112.315 155.137 112.417C155.382 112.52 155.605 112.67 155.793 112.859C155.98 113.047 156.129 113.271 156.23 113.517C156.331 113.763 156.382 114.027 156.381 114.293C156.38 114.559 156.327 114.822 156.225 115.067C156.122 115.313 155.972 115.536 155.784 115.723V115.719Z" fill="#B34943"/>
<path opacity="0.5" d="M156.446 123.903C155.798 124.814 152.261 126.281 152.261 126.281C152.261 126.281 152.49 122.465 153.138 121.554C153.292 121.337 153.487 121.153 153.712 121.012C153.938 120.87 154.188 120.775 154.451 120.731C154.713 120.686 154.981 120.694 155.24 120.753C155.499 120.813 155.744 120.922 155.961 121.076C156.178 121.23 156.362 121.426 156.503 121.651C156.645 121.876 156.74 122.127 156.785 122.389C156.829 122.651 156.821 122.92 156.762 123.179C156.703 123.438 156.593 123.683 156.439 123.9L156.446 123.903Z" fill="#B34943"/>
<path opacity="0.5" d="M145.588 110.836C146.592 111.328 150.394 110.933 150.394 110.933C150.394 110.933 148.37 107.69 147.366 107.199C146.883 106.964 146.327 106.929 145.82 107.103C145.312 107.278 144.894 107.646 144.658 108.129C144.423 108.611 144.388 109.167 144.562 109.675C144.737 110.183 145.105 110.6 145.588 110.836Z" fill="#B34943"/>
<path opacity="0.5" d="M146.484 120.399C147.59 120.568 151.1 119.054 151.1 119.054C151.1 119.054 148.197 116.565 147.093 116.403C146.562 116.323 146.021 116.456 145.588 116.774C145.156 117.093 144.867 117.57 144.787 118.101C144.706 118.631 144.839 119.173 145.158 119.605C145.476 120.038 145.953 120.326 146.484 120.407V120.399Z" fill="#B34943"/>
<path opacity="0.5" d="M148.628 129.571C149.69 129.93 153.406 129.033 153.406 129.033C153.406 129.033 150.967 126.089 149.905 125.735C149.396 125.566 148.84 125.606 148.359 125.847C147.879 126.087 147.514 126.509 147.345 127.018C147.176 127.528 147.216 128.084 147.456 128.564C147.697 129.044 148.119 129.409 148.628 129.578V129.571Z" fill="#B34943"/>
<path opacity="0.5" d="M147.527 100.768C147.874 101.831 146.958 105.542 146.958 105.542C146.958 105.542 144.025 103.088 143.679 102.027C143.512 101.517 143.555 100.961 143.798 100.482C144.041 100.003 144.464 99.6408 144.974 99.4741C145.485 99.3074 146.041 99.3502 146.519 99.5932C146.998 99.8362 147.361 100.259 147.527 100.77V100.768Z" fill="white"/>
<path opacity="0.5" d="M152.633 105.615C152.348 106.693 149.56 109.313 149.56 109.313C149.56 109.313 148.433 105.66 148.718 104.579C148.855 104.06 149.194 103.617 149.658 103.347C150.122 103.077 150.675 103.002 151.194 103.14C151.713 103.277 152.156 103.615 152.426 104.079C152.696 104.544 152.771 105.096 152.633 105.615Z" fill="white"/>
<path opacity="0.5" d="M155.784 115.719C154.992 116.508 151.265 117.361 151.265 117.361C151.265 117.361 152.134 113.638 152.928 112.85C153.117 112.662 153.34 112.514 153.586 112.413C153.833 112.311 154.096 112.26 154.362 112.261C154.628 112.262 154.891 112.315 155.137 112.417C155.382 112.52 155.605 112.67 155.793 112.859C155.98 113.047 156.129 113.271 156.23 113.517C156.331 113.763 156.382 114.027 156.381 114.293C156.38 114.559 156.327 114.822 156.225 115.067C156.122 115.313 155.972 115.536 155.784 115.723V115.719Z" fill="white"/>
<path opacity="0.5" d="M156.446 123.903C155.798 124.814 152.261 126.281 152.261 126.281C152.261 126.281 152.49 122.465 153.138 121.554C153.292 121.337 153.487 121.153 153.712 121.012C153.938 120.87 154.188 120.775 154.451 120.731C154.713 120.686 154.981 120.694 155.24 120.753C155.499 120.813 155.744 120.922 155.961 121.076C156.178 121.23 156.362 121.426 156.503 121.651C156.645 121.876 156.74 122.127 156.785 122.389C156.829 122.651 156.821 122.92 156.762 123.179C156.703 123.438 156.593 123.683 156.439 123.9L156.446 123.903Z" fill="white"/>
<path opacity="0.5" d="M145.588 110.836C146.592 111.328 150.394 110.933 150.394 110.933C150.394 110.933 148.37 107.69 147.366 107.199C146.883 106.964 146.327 106.929 145.82 107.103C145.312 107.278 144.894 107.646 144.658 108.129C144.423 108.611 144.388 109.167 144.562 109.675C144.737 110.183 145.105 110.6 145.588 110.836Z" fill="white"/>
<path opacity="0.5" d="M146.484 120.399C147.59 120.568 151.1 119.054 151.1 119.054C151.1 119.054 148.197 116.565 147.093 116.403C146.562 116.323 146.021 116.456 145.588 116.774C145.156 117.093 144.867 117.57 144.787 118.101C144.706 118.631 144.839 119.173 145.158 119.605C145.476 120.038 145.953 120.326 146.484 120.407V120.399Z" fill="white"/>
<path opacity="0.5" d="M148.628 129.571C149.69 129.93 153.406 129.033 153.406 129.033C153.406 129.033 150.967 126.089 149.905 125.735C149.396 125.566 148.84 125.606 148.359 125.847C147.879 126.087 147.514 126.509 147.345 127.018C147.176 127.528 147.216 128.084 147.456 128.564C147.697 129.044 148.119 129.409 148.628 129.578V129.571Z" fill="white"/>
<path opacity="0.5" d="M145.67 154.472H160.995L164.828 131.102H141.84L145.67 154.472Z" fill="#655B7F"/>
<path opacity="0.1" d="M144.772 131.102L148.352 152.94H161.247L160.995 154.472H145.67L141.84 131.102H144.772Z" fill="#212128"/>
</g>
</g>
<g clip-path="url(#clip1_8965_2051)">
<path d="M109.816 87.7123L47.71 103.705C45.6033 104.245 43.3684 103.928 41.4957 102.822C39.6229 101.716 38.2653 99.9127 37.7205 97.8072L18.938 24.8684C18.398 22.7617 18.7157 20.5268 19.8215 18.6541C20.9272 16.7813 22.7307 15.4237 24.8362 14.879L82.6159 0L97.4048 6.6205L115.714 77.7228C116.254 79.8296 115.937 82.0644 114.831 83.9372C113.725 85.8099 111.922 87.1676 109.816 87.7123Z" fill="#F2F2F2"/>
<path d="M25.4251 17.1656C23.9257 17.5535 22.6415 18.5204 21.8541 19.854C21.0666 21.1876 20.8404 22.7791 21.2249 24.2793L40.0075 97.2181C40.3954 98.7175 41.3622 100.002 42.6958 100.789C44.0294 101.577 45.6209 101.803 47.1212 101.418L109.227 85.4252C110.727 85.0373 112.011 84.0705 112.799 82.7369C113.586 81.4033 113.812 79.8118 113.428 78.3116L95.4017 8.31094L82.4049 2.49268L25.4251 17.1656Z" fill="white"/>
<path d="M97.2472 6.99656L87.6354 9.4717C86.9337 9.65239 86.189 9.54694 85.565 9.17854C84.9411 8.81014 84.489 8.20897 84.3084 7.50729L82.4803 0.408155C82.4722 0.377075 82.4732 0.344369 82.4829 0.313786C82.4926 0.283204 82.5108 0.255985 82.5353 0.235249C82.5598 0.214514 82.5896 0.201101 82.6214 0.19655C82.6532 0.191999 82.6856 0.196493 82.7149 0.209518L97.2739 6.67514C97.3063 6.68953 97.3334 6.71365 97.3515 6.74415C97.3695 6.77465 97.3777 6.81001 97.3747 6.84534C97.3718 6.88067 97.3579 6.91421 97.3351 6.94131C97.3122 6.9684 97.2815 6.98771 97.2472 6.99656Z" fill="#F2F2F2"/>
<path d="M92.1904 69.2851L63.9143 76.5665C63.7406 76.6112 63.5598 76.6213 63.3821 76.5962C63.2045 76.571 63.0336 76.5111 62.8791 76.4199C62.7247 76.3287 62.5897 76.208 62.4819 76.0646C62.374 75.9212 62.2955 75.758 62.2508 75.5843C62.2061 75.4106 62.196 75.2297 62.2211 75.0521C62.2463 74.8745 62.3062 74.7036 62.3974 74.5491C62.4886 74.3946 62.6093 74.2596 62.7527 74.1518C62.8961 74.044 63.0593 73.9655 63.233 73.9208L91.5091 66.6393C91.6828 66.5946 91.8637 66.5845 92.0413 66.6097C92.2189 66.6348 92.3898 66.6947 92.5443 66.7859C92.6988 66.8771 92.8338 66.9979 92.9416 67.1413C93.0494 67.2846 93.1279 67.4478 93.1726 67.6216C93.2174 67.7953 93.2275 67.9761 93.2023 68.1537C93.1772 68.3313 93.1173 68.5023 93.0261 68.6567C92.9349 68.8112 92.8141 68.9462 92.6707 69.054C92.5274 69.1618 92.3642 69.2403 92.1904 69.2851Z" fill="#D8D9DD"/>
<path d="M98.7969 72.3443L65.064 81.031C64.7131 81.1213 64.3408 81.0686 64.0288 80.8844C63.7168 80.7002 63.4908 80.3996 63.4005 80.0487C63.3101 79.6979 63.3628 79.3255 63.547 79.0136C63.7312 78.7016 64.0318 78.4756 64.3827 78.3852L98.1156 69.6986C98.4663 69.6086 98.8384 69.6616 99.1501 69.8458C99.4618 70.03 99.6876 70.3305 99.7779 70.6811C99.8682 71.0318 99.8156 71.4039 99.6316 71.7158C99.4477 72.0277 99.1475 72.2537 98.7969 72.3443Z" fill="#D8D9DD"/>
<path d="M52.3736 85.3359C55.0401 85.3359 57.2018 83.1743 57.2018 80.5078C57.2018 77.8413 55.0401 75.6797 52.3736 75.6797C49.7072 75.6797 47.5455 77.8413 47.5455 80.5078C47.5455 83.1743 49.7072 85.3359 52.3736 85.3359Z" fill="#E6E6E6"/>
<path d="M89.1838 56.6493L51.6303 66.3162C50.545 66.5942 49.3937 66.4305 48.429 65.8607C47.4643 65.291 46.765 64.3619 46.4845 63.2772L38.6147 32.7048C38.3366 31.6195 38.5004 30.4682 39.0701 29.5035C39.6398 28.5389 40.5689 27.8395 41.6536 27.559L79.2071 17.8922C80.2924 17.6141 81.4437 17.7779 82.4084 18.3476C83.3731 18.9173 84.0724 19.8464 84.353 20.9311L92.2228 51.5035C92.5008 52.5888 92.3371 53.7401 91.7673 54.7048C91.1976 55.6695 90.2685 56.3688 89.1838 56.6493Z" fill="white"/>
<path d="M89.1838 56.6493L51.6303 66.3162C50.545 66.5942 49.3937 66.4305 48.429 65.8607C47.4643 65.291 46.765 64.3619 46.4845 63.2772L38.6147 32.7048C38.3366 31.6195 38.5004 30.4682 39.0701 29.5035C39.6398 28.5389 40.5689 27.8395 41.6536 27.559L79.2071 17.8922C80.2924 17.6141 81.4437 17.7779 82.4084 18.3476C83.3731 18.9173 84.0724 19.8464 84.353 20.9311L92.2228 51.5035C92.5008 52.5888 92.3371 53.7401 91.7673 54.7048C91.1976 55.6695 90.2685 56.3688 89.1838 56.6493ZM41.7776 28.0405C40.8205 28.288 40.0007 28.905 39.498 29.7562C38.9953 30.6074 38.8508 31.6233 39.0962 32.5809L46.966 63.1533C47.2135 64.1104 47.8305 64.9302 48.6817 65.4329C49.5329 65.9355 50.5488 66.0801 51.5064 65.8347L89.0599 56.1678C90.017 55.9203 90.8368 55.3033 91.3395 54.4521C91.8422 53.6009 91.9867 52.585 91.7413 51.6274L83.8715 21.055C83.624 20.098 83.0069 19.2782 82.1557 18.7755C81.3045 18.2728 80.2887 18.1283 79.3311 18.3736L41.7776 28.0405Z" fill="#E6E6E6"/>
<path d="M77.3019 28.1719L58.3492 33.0507C58.1835 33.0969 58.0064 33.0785 57.8537 32.9992C57.7011 32.9199 57.5842 32.7856 57.5268 32.6235C57.5 32.5388 57.4908 32.4495 57.4998 32.3611C57.5087 32.2727 57.5355 32.1871 57.5786 32.1094C57.6217 32.0317 57.6802 31.9637 57.7504 31.9093C57.8207 31.855 57.9013 31.8156 57.9873 31.7934L77.2801 26.8271C78.0594 27.222 77.8544 28.0297 77.3017 28.172L77.3019 28.1719Z" fill="#F2F2F2"/>
<path d="M78.1578 31.4961L59.205 36.3749C59.0393 36.4211 58.8622 36.4027 58.7096 36.3234C58.5569 36.2441 58.44 36.1098 58.3826 35.9477C58.3559 35.863 58.3467 35.7737 58.3556 35.6853C58.3645 35.5969 58.3913 35.5113 58.4344 35.4336C58.4775 35.356 58.536 35.2879 58.6063 35.2335C58.6765 35.1792 58.7572 35.1398 58.8432 35.1176L78.1359 30.1514C78.9153 30.5462 78.7102 31.3539 78.1576 31.4962L78.1578 31.4961Z" fill="#F2F2F2"/>
<path d="M55.595 39.3228L49.8108 40.8117C49.6219 40.8602 49.4215 40.8317 49.2536 40.7325C49.0857 40.6333 48.964 40.4716 48.9152 40.2828L47.1581 33.4569C47.1096 33.268 47.1381 33.0676 47.2373 32.8997C47.3365 32.7318 47.4982 32.6101 47.687 32.5613L53.4712 31.0723C53.6601 31.024 53.8605 31.0525 54.0284 31.1517C54.1963 31.2508 54.318 31.4125 54.3669 31.6013L56.124 38.4271C56.1724 38.616 56.1439 38.8164 56.0447 38.9844C55.9456 39.1523 55.7838 39.274 55.595 39.3228V39.3228Z" fill="#E6E6E6"/>
<path d="M79.8548 38.3175L50.9294 45.7633C50.7637 45.8096 50.5866 45.7912 50.4339 45.7119C50.2813 45.6326 50.1644 45.4983 50.107 45.3362C50.0802 45.2514 50.071 45.1622 50.08 45.0738C50.0889 44.9854 50.1157 44.8998 50.1588 44.8221C50.2019 44.7444 50.2604 44.6763 50.3306 44.622C50.4009 44.5677 50.4815 44.5282 50.5675 44.5061L79.8331 36.9727C80.6125 37.3675 80.4074 38.1752 79.8548 38.3175L79.8548 38.3175Z" fill="#F2F2F2"/>
<path d="M80.7109 41.6427L51.7855 49.0885C51.6198 49.1348 51.4427 49.1164 51.29 49.0371C51.1374 48.9578 51.0205 48.8235 50.9631 48.6613C50.9363 48.5766 50.9271 48.4874 50.936 48.399C50.9449 48.3106 50.9718 48.225 51.0149 48.1473C51.058 48.0696 51.1164 48.0015 51.1867 47.9472C51.257 47.8929 51.3376 47.8534 51.4236 47.8313L80.6892 40.2979C81.4686 40.6927 81.2635 41.5004 80.7109 41.6427V41.6427Z" fill="#F2F2F2"/>
<path d="M81.5663 44.9659L52.6409 52.4118C52.4752 52.458 52.2981 52.4396 52.1455 52.3603C51.9928 52.281 51.876 52.1467 51.8185 51.9846C51.7918 51.8999 51.7826 51.8106 51.7915 51.7222C51.8004 51.6338 51.8272 51.5482 51.8703 51.4705C51.9134 51.3928 51.9719 51.3248 52.0422 51.2704C52.1125 51.2161 52.1931 51.1767 52.2791 51.1545L81.5447 43.6211C82.324 44.016 82.119 44.8237 81.5663 44.9659Z" fill="#F2F2F2"/>
<path d="M82.4223 48.2911L53.4969 55.737C53.3312 55.7832 53.1541 55.7648 53.0014 55.6855C52.8488 55.6062 52.7319 55.4719 52.6745 55.3098C52.6477 55.2251 52.6386 55.1358 52.6475 55.0474C52.6564 54.959 52.6832 54.8734 52.7263 54.7957C52.7694 54.718 52.8279 54.65 52.8981 54.5956C52.9684 54.5413 53.049 54.5019 53.1351 54.4797L82.4007 46.9463C83.18 47.3412 82.9749 48.1489 82.4223 48.2911L82.4223 48.2911Z" fill="#F2F2F2"/>
<path d="M83.2778 51.6148L54.3523 59.0607C54.1867 59.1069 54.0096 59.0886 53.8569 59.0093C53.7042 58.93 53.5874 58.7957 53.5299 58.6335C53.5032 58.5488 53.494 58.4595 53.5029 58.3711C53.5118 58.2828 53.5387 58.1971 53.5818 58.1194C53.6249 58.0418 53.6833 57.9737 53.7536 57.9194C53.8239 57.865 53.9045 57.8256 53.9905 57.8034L83.2561 50.27C84.0355 50.6649 83.8304 51.4726 83.2778 51.6148Z" fill="#F2F2F2"/>
<path d="M52.7298 82.2003C52.6247 82.2276 52.5135 82.2199 52.4131 82.1785L52.4069 82.1759L51.0916 81.6183C51.0306 81.5924 50.9752 81.5548 50.9287 81.5076C50.8822 81.4603 50.8455 81.4044 50.8207 81.3429C50.7958 81.2815 50.7834 81.2157 50.784 81.1494C50.7845 81.0831 50.7982 81.0176 50.8241 80.9566C50.8501 80.8956 50.8878 80.8403 50.9351 80.7939C50.9824 80.7475 51.0384 80.7109 51.0999 80.6862C51.1614 80.6614 51.2272 80.649 51.2935 80.6497C51.3598 80.6504 51.4253 80.6642 51.4862 80.6902L52.3385 81.0527L53.4553 78.4255C53.4812 78.3646 53.5189 78.3093 53.5661 78.263C53.6134 78.2166 53.6693 78.18 53.7306 78.1552C53.792 78.1305 53.8577 78.1181 53.9239 78.1187C53.9901 78.1193 54.0555 78.1329 54.1164 78.1588L54.1166 78.1589L54.1099 78.1761L54.1168 78.1588C54.2398 78.2113 54.3369 78.3104 54.3869 78.4343C54.4368 78.5583 54.4356 78.697 54.3834 78.8201L53.0695 81.9092C53.039 81.9804 52.9925 82.0436 52.9337 82.094C52.8748 82.1444 52.8052 82.1805 52.7301 82.1996L52.7298 82.2003Z" fill="white"/>
<path d="M133.638 115.508H69.5055C67.3307 115.505 65.2456 114.64 63.7078 113.102C62.17 111.564 61.3049 109.479 61.3025 107.305V31.9862C61.3049 29.8114 62.17 27.7263 63.7078 26.1885C65.2456 24.6507 67.3307 23.7857 69.5055 23.7832H129.17L141.841 33.8825V107.305C141.838 109.479 140.973 111.564 139.436 113.102C137.898 114.64 135.813 115.505 133.638 115.508Z" fill="#E6E6E6"/>
<path d="M69.5055 26.1445C67.9567 26.1463 66.4719 26.7623 65.3768 27.8574C64.2817 28.9525 63.6657 30.4373 63.6639 31.9861V107.304C63.6657 108.853 64.2817 110.338 65.3768 111.433C66.4719 112.528 67.9567 113.144 69.5055 113.146H133.638C135.187 113.144 136.671 112.528 137.767 111.433C138.862 110.338 139.478 108.853 139.479 107.304V35.0201L128.344 26.1445H69.5055Z" fill="white"/>
<path d="M121.164 48.045H91.9656C91.6033 48.045 91.2559 47.9011 90.9997 47.6449C90.7435 47.3887 90.5996 47.0413 90.5996 46.679C90.5996 46.3167 90.7435 45.9693 90.9997 45.7131C91.2559 45.4569 91.6033 45.313 91.9656 45.313H121.164C121.527 45.313 121.874 45.4569 122.13 45.7131C122.386 45.9693 122.53 46.3167 122.53 46.679C122.53 47.0413 122.386 47.3887 122.13 47.6449C121.874 47.9011 121.527 48.045 121.164 48.045Z" fill="#B34943"/>
<path d="M126.799 52.6554H91.9655C91.6035 52.6549 91.2565 52.5108 91.0008 52.2546C90.745 51.9985 90.6013 51.6513 90.6013 51.2894C90.6013 50.9274 90.745 50.5802 91.0008 50.3241C91.2565 50.068 91.6035 49.9238 91.9655 49.9233H126.799C126.978 49.9231 127.156 49.9582 127.322 50.0268C127.488 50.0953 127.639 50.1959 127.766 50.3228C127.893 50.4497 127.994 50.6003 128.063 50.7662C128.131 50.932 128.167 51.1098 128.167 51.2894C128.167 51.4689 128.131 51.6467 128.063 51.8125C127.994 51.9784 127.893 52.1291 127.766 52.2559C127.639 52.3828 127.488 52.4834 127.322 52.5519C127.156 52.6205 126.978 52.6556 126.799 52.6554Z" fill="#B34943"/>
<path d="M121.164 65.9731H91.9666C91.6044 65.9731 91.2569 66.1171 91.0008 66.3732C90.7446 66.6294 90.6007 66.9768 90.6007 67.3391C90.6007 67.7013 90.7446 68.0488 91.0008 68.3049C91.2569 68.5611 91.6044 68.705 91.9666 68.705H121.164C121.527 68.705 121.874 68.5611 122.13 68.3049C122.386 68.0488 122.53 67.7013 122.53 67.3391C122.53 66.9768 122.386 66.6294 122.13 66.3732C121.874 66.1171 121.527 65.9731 121.164 65.9731Z" fill="#D8D9DD"/>
<path d="M126.799 70.5845H91.9666C91.6044 70.5845 91.2569 70.7284 91.0008 70.9845C90.7446 71.2407 90.6007 71.5881 90.6007 71.9504C90.6007 72.3127 90.7446 72.6601 91.0008 72.9162C91.2569 73.1724 91.6044 73.3163 91.9666 73.3163H126.799C127.162 73.3163 127.509 73.1724 127.765 72.9162C128.021 72.6601 128.165 72.3127 128.165 71.9504C128.165 71.5881 128.021 71.2407 127.765 70.9845C127.509 70.7284 127.162 70.5845 126.799 70.5845Z" fill="#D8D9DD"/>
<path d="M121.164 89.3673H91.9656C91.6033 89.3673 91.2559 89.2234 90.9997 88.9672C90.7435 88.711 90.5996 88.3636 90.5996 88.0013C90.5996 87.639 90.7435 87.2915 90.9997 87.0354C91.2559 86.7792 91.6033 86.6353 91.9656 86.6353H121.164C121.527 86.6353 121.874 86.7792 122.13 87.0354C122.386 87.2915 122.53 87.639 122.53 88.0013C122.53 88.3636 122.386 88.711 122.13 88.9672C121.874 89.2234 121.527 89.3673 121.164 89.3673Z" fill="#D8D9DD"/>
<path d="M126.799 93.9772H91.9655C91.6035 93.9767 91.2565 93.8325 91.0008 93.5764C90.745 93.3203 90.6013 92.9731 90.6013 92.6111C90.6013 92.2492 90.745 91.902 91.0008 91.6459C91.2565 91.3897 91.6035 91.2456 91.9655 91.2451H126.799C126.978 91.2449 127.156 91.28 127.322 91.3486C127.488 91.4171 127.639 91.5177 127.766 91.6446C127.893 91.7714 127.994 91.9221 128.063 92.088C128.131 92.2538 128.167 92.4316 128.167 92.6111C128.167 92.7907 128.131 92.9685 128.063 93.1343C127.994 93.3002 127.893 93.4508 127.766 93.5777C127.639 93.7046 127.488 93.8052 127.322 93.8737C127.156 93.9422 126.978 93.9774 126.799 93.9772Z" fill="#D8D9DD"/>
<path d="M79.8065 53.8125C82.473 53.8125 84.6346 51.6509 84.6346 48.9844C84.6346 46.3179 82.473 44.1562 79.8065 44.1562C77.14 44.1562 74.9784 46.3179 74.9784 48.9844C74.9784 51.6509 77.14 53.8125 79.8065 53.8125Z" fill="#B34943"/>
<path d="M79.3281 50.8258C79.2195 50.826 79.1138 50.7909 79.0269 50.7257L79.0215 50.7217L77.8868 49.8537C77.8341 49.8134 77.7898 49.7632 77.7566 49.7059C77.7233 49.6485 77.7016 49.5851 77.6929 49.5194C77.6841 49.4537 77.6884 49.3869 77.7055 49.3228C77.7226 49.2587 77.7522 49.1987 77.7925 49.146C77.8329 49.0934 77.8832 49.0493 77.9406 49.0161C77.9981 48.983 78.0615 48.9615 78.1272 48.9529C78.193 48.9443 78.2598 48.9487 78.3238 48.9659C78.3878 48.9832 78.4478 49.0129 78.5004 49.0533L79.2353 49.6169L80.972 47.3512C81.0123 47.2986 81.0625 47.2546 81.1198 47.2214C81.1772 47.1883 81.2404 47.1668 81.306 47.1581C81.3717 47.1495 81.4384 47.1538 81.5023 47.1709C81.5662 47.188 81.6262 47.2176 81.6787 47.2578L81.6789 47.2579L81.6681 47.2729L81.6792 47.2579C81.7851 47.3394 81.8545 47.4596 81.8719 47.5921C81.8894 47.7246 81.8536 47.8586 81.7724 47.9648L79.7296 50.6286C79.6824 50.69 79.6216 50.7396 79.552 50.7737C79.4825 50.8078 79.406 50.8255 79.3286 50.8252L79.3281 50.8258Z" fill="white"/>
<path d="M85.1309 69.6447C85.1311 70.2788 85.0064 70.9067 84.764 71.4927C84.5215 72.0786 84.166 72.611 83.7177 73.0595C83.2694 73.508 82.7372 73.8638 82.1514 74.1066C81.5656 74.3494 80.9377 74.4744 80.3036 74.4745C80.2621 74.4753 80.2206 74.4736 80.1793 74.4695C79.23 74.4452 78.3089 74.1414 77.5313 73.5962C76.7538 73.051 76.1543 72.2886 75.8079 71.4044C75.4615 70.5202 75.3835 69.5534 75.5838 68.6251C75.7841 67.6968 76.2537 66.8482 76.9338 66.1855C77.6139 65.5228 78.4744 65.0753 79.4076 64.8992C80.3408 64.7231 81.3052 64.8261 82.1801 65.1953C83.055 65.5645 83.8016 66.1835 84.3265 66.975C84.8514 67.7664 85.1312 68.695 85.1309 69.6447Z" fill="#D8D9DD"/>
<path d="M79.8065 95.1343C82.473 95.1343 84.6346 92.9726 84.6346 90.3061C84.6346 87.6396 82.473 85.478 79.8065 85.478C77.14 85.478 74.9784 87.6396 74.9784 90.3061C74.9784 92.9726 77.14 95.1343 79.8065 95.1343Z" fill="#D8D9DD"/>
<path d="M141.594 34.2076H131.669C130.944 34.2076 130.249 33.9198 129.737 33.4075C129.225 32.8951 128.937 32.2002 128.937 31.4756V24.1449C128.937 24.1128 128.946 24.0813 128.963 24.0541C128.98 24.027 129.004 24.0051 129.033 23.9912C129.062 23.9772 129.094 23.9716 129.126 23.9751C129.158 23.9787 129.189 23.9911 129.214 24.011L141.7 33.903C141.728 33.9251 141.748 33.9552 141.758 33.9892C141.768 34.0233 141.767 34.0595 141.756 34.093C141.744 34.1265 141.722 34.1555 141.693 34.1761C141.664 34.1966 141.63 34.2076 141.594 34.2076Z" fill="#D8D9DD"/>
<path d="M85.1308 69.645C85.131 70.2791 85.0064 70.9071 84.7639 71.493C84.5214 72.0789 84.1659 72.6113 83.7176 73.0598C83.2693 73.5083 82.7371 73.8641 82.1513 74.1069C81.5655 74.3497 80.9376 74.4747 80.3035 74.4748C80.262 74.4756 80.2205 74.474 80.1792 74.4698C79.5554 72.9141 79.315 71.2311 79.4781 69.5629C79.6412 67.8948 80.2031 66.2903 81.1163 64.8848C82.2394 65.0773 83.2583 65.6606 83.9929 66.5317C84.7275 67.4028 85.1306 68.5055 85.1308 69.645Z" fill="#B34943"/>
<path d="M90.5995 67.3403C90.6001 66.9779 90.7444 66.6306 91.0006 66.3743C91.2569 66.118 91.6043 65.9738 91.9667 65.9731H99.2425C99.6674 66.8375 99.9694 67.757 100.14 68.705H91.9667C91.6045 68.7049 91.2572 68.5612 91.0009 68.3053C90.7446 68.0495 90.6002 67.7025 90.5995 67.3403Z" fill="#D8D9DD"/>
<path d="M100.309 70.5845C100.309 71.5071 100.187 72.4258 99.9459 73.3163H91.9666C91.6044 73.3163 91.2569 73.1724 91.0008 72.9162C90.7446 72.6601 90.6007 72.3127 90.6007 71.9504C90.6007 71.5881 90.7446 71.2407 91.0008 70.9845C91.2569 70.7284 91.6044 70.5845 91.9666 70.5845H100.309Z" fill="#D8D9DD"/>
<path d="M118.311 87.4321C118.105 87.7698 117.773 88.0119 117.389 88.105C117.005 88.1981 116.599 88.1347 116.261 87.9288L98.8597 77.3145C98.6925 77.2125 98.547 77.0786 98.4316 76.9204C98.3161 76.7622 98.2329 76.5828 98.1868 76.3924C98.1407 76.2021 98.1325 76.0045 98.1628 75.811C98.193 75.6175 98.2611 75.4318 98.3631 75.2646C98.4651 75.0974 98.599 74.9519 98.7572 74.8365C98.9154 74.721 99.0948 74.6379 99.2852 74.5917C99.4755 74.5456 99.6731 74.5374 99.8666 74.5677C100.06 74.5979 100.246 74.666 100.413 74.768L117.815 85.3822C118.152 85.5882 118.394 85.9199 118.487 86.3043C118.58 86.6888 118.517 87.0945 118.311 87.4321Z" fill="#B34943"/>
<path d="M100.91 76.8177C99.6807 78.8323 97.8821 80.4373 95.741 81.4297C93.6 82.4221 91.2128 82.7574 88.8812 82.393C86.5496 82.0287 84.3785 80.9811 82.6423 79.3828C80.9061 77.7846 79.6828 75.7073 79.1272 73.4138C78.5716 71.1203 78.7085 68.7135 79.5207 66.4979C80.3329 64.2822 81.7839 62.3571 83.6902 60.9661C85.5965 59.5751 87.8725 58.7806 90.2303 58.683C92.5881 58.5855 94.9219 59.1894 96.9366 60.4182C99.6353 62.0686 101.569 64.722 102.314 67.7964C103.059 70.8709 102.554 74.1152 100.91 76.8177ZM83.0837 65.9446C82.162 67.4555 81.7092 69.2059 81.7823 70.9743C81.8554 72.7426 82.4513 74.4496 83.4946 75.8793C84.5379 77.3091 85.9817 78.3973 87.6434 79.0064C89.3052 79.6156 91.1102 79.7183 92.8304 79.3016C94.5505 78.8849 96.1084 77.9674 97.3071 76.6653C98.5058 75.3631 99.2915 73.7348 99.5648 71.9861C99.838 70.2374 99.5866 68.447 98.8423 66.8412C98.098 65.2354 96.8943 63.8864 95.3833 62.9648C93.3564 61.7316 90.9232 61.3528 88.6173 61.9114C86.3115 62.47 84.3214 63.9205 83.0837 65.9446Z" fill="#B34943"/>
<path d="M139.138 72.5177C142.51 72.5177 145.244 69.7842 145.244 66.4124C145.244 63.0406 142.51 60.3071 139.138 60.3071C135.766 60.3071 133.033 63.0406 133.033 66.4124C133.033 69.7842 135.766 72.5177 139.138 72.5177Z" fill="#EBD09D"/>
<path d="M138.744 100.639C138.626 100.272 138.587 99.8846 138.63 99.5017C138.672 99.1187 138.795 98.7491 138.99 98.417C139.186 98.0849 139.449 97.7978 139.763 97.5745C140.077 97.3512 140.435 97.1968 140.813 97.1214C140.932 97.0981 141.053 97.0831 141.175 97.0768L147.606 86.7551L141.732 81.1704C141.507 80.957 141.327 80.7013 141.202 80.418C141.077 80.1346 141.01 79.8294 141.003 79.5197C140.997 79.2101 141.052 78.9023 141.165 78.614C141.278 78.3257 141.447 78.0628 141.663 77.8403C141.878 77.6177 142.135 77.4401 142.42 77.3176C142.704 77.1952 143.01 77.1302 143.32 77.1266C143.63 77.123 143.937 77.1808 144.224 77.2966C144.511 77.4125 144.773 77.5841 144.993 77.8015L153.104 85.7991L153.121 85.819C153.371 86.2008 153.493 86.6533 153.466 87.1093C153.439 87.5654 153.266 88.0007 152.973 88.3506L143.962 99.0078C143.989 99.0932 144.011 99.18 144.029 99.2678C144.104 99.6457 144.099 100.035 144.013 100.411C143.928 100.787 143.764 101.14 143.532 101.448C143.3 101.756 143.006 102.011 142.668 102.197C142.331 102.383 141.958 102.496 141.574 102.528C141.497 102.535 141.419 102.538 141.343 102.538C140.765 102.536 140.202 102.351 139.735 102.01C139.269 101.669 138.922 101.189 138.744 100.639Z" fill="#EBD09D"/>
<path d="M129.083 151.383L126.035 151.383L124.586 139.628L129.083 139.628L129.083 151.383Z" fill="#EBD09D"/>
<path d="M129.86 154.336L120.034 154.336V154.212C120.034 153.71 120.133 153.212 120.325 152.748C120.517 152.284 120.799 151.863 121.154 151.507C121.509 151.152 121.931 150.871 122.395 150.678C122.859 150.486 123.356 150.387 123.859 150.387H123.859L129.86 150.387L129.86 154.336Z" fill="#212128"/>
<path d="M159.373 147.169L156.755 148.728L149.495 139.37L153.36 137.069L159.373 147.169Z" fill="#EBD09D"/>
<path d="M161.552 149.31L153.109 154.337L153.046 154.23C152.789 153.798 152.619 153.32 152.547 152.823C152.475 152.326 152.501 151.82 152.625 151.333C152.748 150.846 152.966 150.388 153.267 149.986C153.567 149.583 153.944 149.244 154.375 148.987L154.375 148.987L159.532 145.917L161.552 149.31Z" fill="#212128"/>
<path d="M124.201 146.206C122.16 122.167 120.945 99.8353 128.408 90.7254L128.466 90.6548L141.025 95.6787L141.046 95.7236C141.088 95.8159 145.265 105.004 144.291 111.184L147.389 125.434L157.49 142.347C157.571 142.483 157.623 142.635 157.641 142.793C157.659 142.95 157.644 143.11 157.595 143.261C157.547 143.412 157.467 143.551 157.361 143.669C157.255 143.787 157.125 143.881 156.98 143.945L152.591 145.876C152.343 145.984 152.065 145.999 151.807 145.919C151.549 145.838 151.329 145.667 151.187 145.437L140.198 127.52L133.992 113.777C133.958 113.703 133.901 113.641 133.829 113.603C133.757 113.564 133.674 113.55 133.593 113.563C133.512 113.576 133.438 113.615 133.382 113.674C133.325 113.734 133.29 113.81 133.281 113.891L129.841 146.23C129.812 146.505 129.683 146.76 129.477 146.944C129.272 147.129 129.005 147.231 128.729 147.231H125.316C125.036 147.229 124.767 147.123 124.561 146.934C124.355 146.744 124.227 146.485 124.201 146.206Z" fill="#504E6F"/>
<path d="M128.451 90.9159L128.391 90.8873L128.381 90.8215C127.912 87.5378 128.468 83.8893 130.032 79.9774C130.803 78.0628 132.236 76.4889 134.07 75.5425C135.905 74.596 138.018 74.34 140.025 74.8211C141.181 75.106 142.266 75.628 143.21 76.3538C144.154 77.0797 144.937 77.9937 145.509 79.0379C146.074 80.0715 146.418 81.2111 146.519 82.3846C146.621 83.5581 146.478 84.7398 146.099 85.8551C144.127 91.6221 141.568 97.0179 141.543 97.0718L141.489 97.1844L128.451 90.9159Z" fill="#CBCCE1"/>
<path d="M114.748 82.737C115.05 82.4982 115.399 82.3261 115.773 82.2318C116.147 82.1375 116.536 82.1232 116.915 82.1898C117.295 82.2565 117.656 82.4026 117.975 82.6185C118.294 82.8344 118.564 83.1154 118.767 83.4429C118.831 83.5468 118.887 83.6552 118.936 83.767L130.856 86.1762L134.03 78.7181C134.151 78.4331 134.328 78.175 134.549 77.9586C134.771 77.7423 135.033 77.5719 135.321 77.4575C135.609 77.343 135.916 77.2867 136.226 77.2918C136.536 77.2969 136.841 77.3633 137.125 77.4872C137.409 77.611 137.665 77.7899 137.88 78.0134C138.094 78.2369 138.262 78.5007 138.374 78.7895C138.486 79.0783 138.539 79.3864 138.531 79.696C138.523 80.0056 138.454 80.3106 138.328 80.5933L133.677 90.9913L133.664 91.0135C133.394 91.3822 133.013 91.6541 132.576 91.7889C132.14 91.9237 131.671 91.9141 131.241 91.7617L118.103 87.0534C118.032 87.1086 117.959 87.1599 117.883 87.2074C117.555 87.4103 117.189 87.5417 116.807 87.593C116.425 87.6443 116.036 87.6143 115.667 87.505C115.297 87.3957 114.955 87.2096 114.663 86.9588C114.37 86.7081 114.134 86.3983 113.969 86.0499C113.936 85.9795 113.906 85.9084 113.879 85.8364C113.679 85.2941 113.655 84.7025 113.811 84.1459C113.967 83.5893 114.295 83.0962 114.748 82.737Z" fill="#EBD09D"/>
<path d="M161.194 72.9508C160.606 71.9088 159.749 70.9544 158.617 70.5692C157.154 70.0718 155.57 70.6015 154.066 70.9551C152.907 71.2275 151.697 71.3943 150.529 71.1644C149.361 70.9344 148.234 70.2548 147.703 69.1896C146.921 67.6227 147.579 65.7542 147.532 64.0037C147.507 63.0508 147.267 62.1159 146.829 61.2695C146.39 60.423 145.766 59.6871 145.002 59.1172C144.238 58.5473 143.354 58.1583 142.418 57.9795C141.482 57.8007 140.517 57.8368 139.597 58.085C138.156 57.6694 136.853 57.631 135.962 58.7381C134.841 58.7381 133.766 59.1833 132.974 59.9758C132.181 60.7682 131.736 61.8431 131.736 62.9638H135.777C135.585 63.9942 135.804 65.0585 136.387 65.9296C137.1 66.9775 138.34 67.7356 138.579 68.9806C138.811 70.1871 137.99 71.3318 137.13 72.2088C136.27 73.0858 135.272 73.9547 135.003 75.1535C134.839 76.0635 135.026 77.002 135.526 77.7796C136.026 78.5477 136.646 79.2306 137.362 79.802C140.59 82.5673 144.426 84.5298 148.558 85.5292C151.467 86.2297 154.649 86.4112 157.35 85.1227C158.43 84.6072 159.393 83.8751 160.179 82.9718C160.964 82.0685 161.556 81.0133 161.916 79.8718C162.277 78.7303 162.399 77.5269 162.274 76.3363C162.15 75.1456 161.782 73.9933 161.194 72.9508Z" fill="#3F3D56"/>
<path d="M161.981 154.632H90.8905C90.7913 154.632 90.6961 154.604 90.6259 154.553C90.5558 154.503 90.5164 154.434 90.5164 154.363C90.5164 154.291 90.5558 154.223 90.6259 154.172C90.6961 154.122 90.7913 154.093 90.8905 154.093H161.981C162.08 154.093 162.175 154.122 162.245 154.172C162.315 154.223 162.355 154.291 162.355 154.363C162.355 154.434 162.315 154.503 162.245 154.553C162.175 154.604 162.08 154.632 161.981 154.632Z" fill="#D8D9DD"/>
</g>
<defs>
<clipPath id="clip0_8965_2051">
<rect width="200" height="151.604" fill="white" transform="translate(0 14.188)"/>
</clipPath>
<clipPath id="clip1_8965_2051">
<rect width="143.677" height="154.595" fill="white" transform="translate(18.678)"/>
</clipPath>
</defs>
</svg>
